<?xml version="1.0" encoding="UTF-8"?>
<!DOCTYPE svg PUBLIC "-//W3C//DTD SVG 1.1//EN" "http://www.w3.org/Graphics/SVG/1.1/DTD/svg11.dtd">
<!-- Creator: CorelDRAW 2021 (64-Bit) -->
<svg xmlns="http://www.w3.org/2000/svg" xml:space="preserve" width="5015px" height="5017px" version="1.1" style="shape-rendering:geometricPrecision; text-rendering:geometricPrecision; image-rendering:optimizeQuality; fill-rule:evenodd; clip-rule:evenodd"
viewBox="0 0 609.26 609.51"
 xmlns:xlink="http://www.w3.org/1999/xlink"
 xmlns:xodm="http://www.corel.com/coreldraw/odm/2003">
 <defs>
  <style type="text/css">
   <![CDATA[
    .str0 {stroke:#FEFEFE;stroke-width:0.29;stroke-miterlimit:22.9256}
    .str1 {stroke:#FEFEFE;stroke-width:0.29;stroke-linecap:round;stroke-linejoin:round;stroke-miterlimit:22.9256}
    .fil6 {fill:none}
    .fil5 {fill:#FEFEFE}
    .fil1 {fill:#8A3A6D}
    .fil2 {fill:#00AFEF}
    .fil4 {fill:#3E4095}
    .fil0 {fill:#3E4095;fill-rule:nonzero}
    .fil3 {fill:#373435;fill-rule:nonzero}
   ]]>
  </style>
 </defs>
 <g id="Capa_x0020_1">
  <metadata id="CorelCorpID_0Corel-Layer"/>
  <g id="_2195673522944">
   <path class="fil0" d="M44.15 446.3l0 -69.92c0,-0.95 0.53,-1.79 1.48,-2.53 0.95,-0.74 2.11,-1.06 3.48,-1.06l18.66 0c7.18,0 12.98,1.9 17.3,5.7 4.32,3.79 6.43,9.7 6.43,17.82l0 30.06c0,8.12 -2.11,14.02 -6.43,17.82 -4.32,3.79 -10.12,5.69 -17.3,5.69l-18.66 0c-1.37,0 -2.53,-0.31 -3.48,-1.05 -0.95,-0.74 -1.48,-1.58 -1.48,-2.53zm11.18 -6.33l12.44 0c8.34,0 12.55,-4.53 12.55,-13.6l0 -30.06c0,-9.07 -4.21,-13.6 -12.55,-13.6l-12.44 0 0 57.26zm49.25 6.22l0 -69.71c0,-1.16 0.53,-2 1.48,-2.74 0.94,-0.63 2.1,-0.95 3.48,-0.95l37.54 0c1.16,0 2.11,0.53 2.74,1.48 0.63,0.95 0.95,2.11 0.95,3.37 0,1.38 -0.32,2.64 -0.95,3.59 -0.74,0.95 -1.58,1.48 -2.74,1.48l-31.32 0 0 24.15 16.24 0c1.16,0 2,0.42 2.74,1.26 0.63,0.95 0.95,2.01 0.95,3.27 0,1.16 -0.32,2.11 -0.95,2.95 -0.63,0.95 -1.58,1.37 -2.74,1.37l-16.24 0 0 24.26 31.32 0c1.16,0 2,0.53 2.74,1.48 0.63,0.95 0.95,2.21 0.95,3.58 0,1.27 -0.32,2.43 -0.95,3.38 -0.63,0.95 -1.58,1.47 -2.74,1.47l-37.54 0c-1.38,0 -2.54,-0.31 -3.48,-1.05 -0.95,-0.63 -1.48,-1.48 -1.48,-2.64zm51.25 -7.91c0,-1.37 0.53,-2.63 1.48,-4.01 0.95,-1.37 2.11,-2 3.37,-2 0.74,0 1.69,0.42 2.85,1.37 1.05,0.85 2.11,1.9 3.16,2.85 1.06,1.05 2.64,2.11 4.85,2.95 2.11,0.95 4.54,1.37 7.18,1.37 4,0 7.27,-0.95 9.7,-2.84 2.42,-1.9 3.58,-4.75 3.58,-8.44 0,-3.38 -1.16,-6.22 -3.48,-8.44 -2.42,-2.32 -5.27,-4.11 -8.54,-5.38 -3.37,-1.37 -6.75,-2.84 -10.12,-4.42 -3.38,-1.48 -6.22,-3.8 -8.55,-6.96 -2.42,-3.06 -3.58,-6.97 -3.58,-11.71 0,-3.69 0.74,-6.86 2.21,-9.6 1.37,-2.74 3.38,-4.85 5.8,-6.32 2.43,-1.48 5.07,-2.54 7.81,-3.27 2.63,-0.64 5.48,-0.95 8.54,-0.95 1.9,0 3.9,0.1 6.01,0.31 2,0.32 4.11,0.64 6.12,1.27 2,0.53 3.69,1.37 5.06,2.42 1.37,0.95 2,2.22 2,3.48 0,1.38 -0.42,2.64 -1.26,4.01 -0.85,1.37 -2.01,2.01 -3.38,2.01 -0.74,0 -1.68,-0.32 -2.84,-0.95 -1.16,-0.74 -2.75,-1.37 -4.75,-2.11 -2,-0.64 -4.32,-0.95 -6.96,-0.95 -4.01,0 -7.17,0.74 -9.6,2.42 -2.42,1.59 -3.58,4.01 -3.58,7.17 0,2.22 0.63,4.01 1.9,5.49 1.26,1.58 2.95,2.74 4.95,3.8 2.01,0.94 4.22,1.89 6.65,2.95 2.42,0.95 4.95,2 7.38,3.27 2.42,1.26 4.64,2.74 6.64,4.43 2.01,1.68 3.59,3.9 4.85,6.85 1.27,2.85 1.9,6.22 1.9,10.02 0,7.28 -2.21,12.87 -6.54,16.66 -4.43,3.8 -10.23,5.7 -17.5,5.7 -6.44,0 -11.92,-1.37 -16.45,-4.12 -4.54,-2.63 -6.86,-5.48 -6.86,-8.33zm57.9 7.91l0 -69.81c0,-1.16 0.52,-2.11 1.68,-2.74 1.06,-0.53 2.32,-0.85 3.91,-0.85 1.58,0 2.84,0.32 4,0.85 1.06,0.63 1.59,1.58 1.59,2.74l0 29.11 26.25 0 0 -29.11c0,-1.16 0.53,-2.11 1.69,-2.74 1.06,-0.53 2.32,-0.85 3.9,-0.85 1.59,0 2.85,0.32 4.01,0.85 1.06,0.63 1.58,1.58 1.58,2.74l0 69.81c0,1.16 -0.52,2.01 -1.58,2.64 -1.16,0.74 -2.42,1.05 -4.01,1.05 -1.47,0 -2.74,-0.31 -3.9,-1.05 -1.16,-0.63 -1.69,-1.48 -1.69,-2.64l0 -31.85 -26.25 0 0 31.85c0,1.16 -0.53,2.01 -1.59,2.64 -1.16,0.74 -2.42,1.05 -4,1.05 -1.48,0 -2.75,-0.31 -3.91,-1.05 -1.16,-0.63 -1.68,-1.48 -1.68,-2.64zm62.22 -19.19l0 -50.62c0,-1.16 0.52,-2.11 1.68,-2.74 1.06,-0.53 2.32,-0.85 3.91,-0.85 1.58,0 2.84,0.32 4,0.85 1.06,0.63 1.59,1.58 1.59,2.74l0 50.62c0,4.53 1.16,8.01 3.37,10.23 2.21,2.21 5.38,3.37 9.49,3.37 8.65,0 12.97,-4.53 12.97,-13.6l0 -50.62c0,-1.16 0.53,-2.11 1.69,-2.74 1.05,-0.53 2.32,-0.85 3.9,-0.85 1.58,0 2.85,0.32 4.01,0.85 1.05,0.63 1.58,1.58 1.58,2.74l0 50.62c0,8.12 -2.21,14.02 -6.54,17.82 -4.43,3.8 -10.33,5.7 -17.61,5.7 -7.28,0 -13.08,-1.9 -17.4,-5.7 -4.43,-3.8 -6.64,-9.7 -6.64,-17.82zm61.79 19.19l0 -67.81c0,-1.9 0.53,-3.27 1.59,-4.22 1.05,-0.94 2.42,-1.37 4,-1.37 2.01,0 3.7,0.43 5.07,1.27 1.26,0.95 2.53,2.64 3.79,5.06l14.77 27.95 14.97 -27.95c1.27,-2.42 2.53,-4.11 3.8,-5.06 1.26,-0.84 2.95,-1.27 4.95,-1.27 1.59,0 2.96,0.43 4.01,1.37 1.06,0.95 1.58,2.32 1.58,4.22l0 67.81c0,1.16 -0.52,2.01 -1.58,2.64 -1.16,0.74 -2.42,1.05 -4.01,1.05 -1.47,0 -2.74,-0.31 -3.9,-1.05 -1.16,-0.63 -1.68,-1.48 -1.68,-2.64l0 -50.62 -14.14 26.16c-1.05,1.68 -2.42,2.53 -4.11,2.53 -1.69,0 -2.95,-0.85 -3.8,-2.53l-14.13 -26.79 0 51.25c0,1.16 -0.52,2.01 -1.58,2.64 -1.16,0.74 -2.42,1.05 -4.01,1.05 -1.47,0 -2.74,-0.31 -3.9,-1.05 -1.16,-0.63 -1.69,-1.48 -1.69,-2.64zm66.97 -68.33c0,-1.27 0.32,-2.54 0.95,-3.48 0.63,-1.06 1.58,-1.59 2.74,-1.59l43.77 0c1.16,0 2.11,0.53 2.74,1.48 0.63,0.95 0.95,2.21 0.95,3.48 0,1.58 -0.32,2.85 -0.95,3.8 -0.74,1.05 -1.58,1.58 -2.74,1.58l-16.24 0 0 63.06c0,1.16 -0.53,2.01 -1.69,2.64 -1.16,0.74 -2.43,1.05 -3.9,1.05 -1.59,0 -2.85,-0.31 -3.91,-1.05 -1.16,-0.63 -1.68,-1.48 -1.68,-2.64l0 -63.06 -16.35 0c-1.16,0 -2,-0.53 -2.64,-1.58 -0.73,-0.95 -1.05,-2.22 -1.05,-3.69zm59.58 68.33l0 -69.71c0,-1.16 0.53,-2 1.48,-2.74 0.95,-0.63 2.11,-0.95 3.48,-0.95l37.54 0c1.16,0 2.11,0.53 2.74,1.48 0.64,0.95 0.95,2.11 0.95,3.37 0,1.38 -0.31,2.64 -0.95,3.59 -0.73,0.95 -1.58,1.48 -2.74,1.48l-31.32 0 0 24.15 16.24 0c1.16,0 2.01,0.42 2.74,1.26 0.64,0.95 0.95,2.01 0.95,3.27 0,1.16 -0.31,2.11 -0.95,2.95 -0.63,0.95 -1.58,1.37 -2.74,1.37l-16.24 0 0 24.26 31.32 0c1.16,0 2.01,0.53 2.74,1.48 0.64,0.95 0.95,2.21 0.95,3.58 0,1.27 -0.31,2.43 -0.95,3.38 -0.63,0.95 -1.58,1.47 -2.74,1.47l-37.54 0c-1.37,0 -2.53,-0.31 -3.48,-1.05 -0.95,-0.63 -1.48,-1.48 -1.48,-2.64z"/>
   <path class="fil0" d="M517.76 427l0 -30.69c0,-8.12 2.22,-14.03 6.54,-17.82 4.32,-3.8 9.91,-5.7 16.87,-5.7 7.17,0 12.97,1.8 17.4,5.28 4.33,3.58 6.54,8.22 6.54,13.81 0,2.22 -0.42,3.8 -1.26,4.54 -0.85,0.84 -2.32,1.26 -4.33,1.26 -3.69,0 -5.48,-1.26 -5.59,-3.69 -0.42,-7.49 -4.53,-11.28 -12.34,-11.28 -8.43,0 -12.65,4.53 -12.65,13.6l0 30.69c0,9.07 4.32,13.6 12.86,13.6 2.54,0 4.65,-0.42 6.33,-1.16 1.69,-0.74 2.96,-1.79 3.69,-3.16 0.74,-1.37 1.16,-2.64 1.48,-3.69 0.32,-1.06 0.53,-2.32 0.63,-3.9 0.21,-2.43 2.01,-3.7 5.49,-3.7 2,0 3.48,0.43 4.43,1.16 0.84,0.85 1.26,2.43 1.26,4.64 0,5.81 -2.21,10.55 -6.64,14.24 -4.43,3.69 -10.23,5.49 -17.4,5.49 -6.96,0 -12.55,-1.9 -16.88,-5.7 -4.32,-3.8 -6.43,-9.7 -6.43,-17.82z"/>
   <g>
    <image x="44.15" y="372.17" width="520.96" height="78.56" xlink:href="2_Images\2_ImgID1.png"/>
   </g>
   <g>
    <image x="44.15" y="372.17" width="520.96" height="78.56" xlink:href="2_Images\2_ImgID2.png"/>
   </g>
   <path class="fil1" d="M363.56 169.05c4.46,-7.05 9.7,-15.6 12.65,-25.1 6.4,-20.54 4.25,-18.99 -3.6,-3.96 -8.62,16.53 -22.83,30.72 -38.47,41.64 -13.74,9.6 -30.69,19.3 -42.65,30.07 -2.04,1.84 -3.57,2.7 -4.34,4.43 1.89,1.19 5.79,5.25 7.43,6.89l6.81 7.87c1.34,-0.42 6.7,-5.69 8.44,-7.12 5.16,-4.24 23.59,-18.64 25.53,-22.3 1.46,-0.54 6.49,-6.08 7.67,-7.3 7.25,-7.49 14.6,-16.06 20.53,-25.12z"/>
   <g>
    <image x="287.02" y="128.62" width="93.51" height="102.52" xlink:href="2_Images\2_ImgID3.png"/>
   </g>
   <path class="fil2" d="M281.6 256.84c1.88,1.69 4.82,10.57 5.85,13.69 1.85,5.64 2.25,10.54 3.52,16.48 2.07,20.09 -0.37,42.76 -6.13,61.9 -9.96,33.06 4.18,8.97 11.18,-5.82 8.84,-20.06 12.9,-42.85 13.62,-65.03 0.27,-1.84 0.12,-6.69 -0.14,-8.06 -0.8,-3.99 -1.01,-7.53 -2.01,-11.57 -8.05,-32.52 -33.23,-44.64 -59.22,-63.22 -12.92,-9.24 -23.5,-19.88 -30.9,-33.58 -4.98,-9.22 -8.15,-18.25 -5.03,0.8 1.11,6.73 3.34,13.69 4.99,17.65 6.43,15.39 15.45,25.31 27.35,35.84 7.85,6.95 16.67,14.92 24.53,21.63 -1.09,5.92 -7.79,17.86 -9.9,27.06 -3.64,15.9 -2.13,37.84 2.24,53.59 11.82,42.64 4.91,9.07 5.53,-8.59 0.47,-13.61 3.4,-28.89 8.49,-40.23 1.19,-2.67 3.12,-6.43 3.83,-8.75l2.2 -3.79z"/>
   <g>
    <image x="210.82" y="150.76" width="99.27" height="215.04" xlink:href="2_Images\2_ImgID4.png"/>
   </g>
   <path class="fil3" d="M101.31 479.69l0 -18.96c0,-0.26 0.13,-0.49 0.36,-0.69 0.24,-0.2 0.52,-0.28 0.86,-0.28l4.58 0c1.76,0 3.18,0.51 4.25,1.54 1.06,1.03 1.57,2.63 1.57,4.83l0 8.16c0,2.2 -0.51,3.8 -1.57,4.83 -1.07,1.03 -2.49,1.54 -4.25,1.54l-4.58 0c-0.34,0 -0.62,-0.08 -0.86,-0.28 -0.23,-0.2 -0.36,-0.43 -0.36,-0.69zm2.74 -1.71l3.06 0c2.04,0 3.08,-1.23 3.08,-3.69l0 -8.16c0,-2.46 -1.04,-3.69 -3.08,-3.69l-3.06 0 0 15.54zm12.1 1.68l0 -18.9c0,-0.32 0.12,-0.55 0.36,-0.75 0.23,-0.17 0.52,-0.25 0.85,-0.25l9.22 0c0.28,0 0.52,0.14 0.67,0.4 0.16,0.25 0.24,0.57 0.24,0.91 0,0.37 -0.08,0.72 -0.24,0.97 -0.18,0.26 -0.39,0.4 -0.67,0.4l-7.69 0 0 6.55 3.99 0c0.28,0 0.49,0.12 0.67,0.35 0.16,0.26 0.23,0.54 0.23,0.88 0,0.32 -0.07,0.58 -0.23,0.81 -0.16,0.25 -0.39,0.37 -0.67,0.37l-3.99 0 0 6.58 7.69 0c0.28,0 0.49,0.14 0.67,0.4 0.16,0.25 0.24,0.6 0.24,0.97 0,0.34 -0.08,0.66 -0.24,0.91 -0.15,0.26 -0.39,0.4 -0.67,0.4l-9.22 0c-0.33,0 -0.62,-0.08 -0.85,-0.28 -0.24,-0.17 -0.36,-0.4 -0.36,-0.72zm12.58 -2.14c0,-0.37 0.13,-0.72 0.36,-1.09 0.23,-0.37 0.52,-0.54 0.83,-0.54 0.18,0 0.41,0.11 0.7,0.37 0.26,0.23 0.52,0.51 0.77,0.77 0.26,0.29 0.65,0.57 1.2,0.8 0.51,0.26 1.11,0.37 1.76,0.37 0.98,0 1.78,-0.25 2.38,-0.77 0.59,-0.51 0.88,-1.28 0.88,-2.29 0,-0.91 -0.29,-1.68 -0.86,-2.28 -0.59,-0.63 -1.29,-1.12 -2.09,-1.46 -0.83,-0.37 -1.66,-0.77 -2.49,-1.2 -0.83,-0.4 -1.53,-1.03 -2.1,-1.89 -0.59,-0.83 -0.88,-1.89 -0.88,-3.18 0,-1 0.19,-1.86 0.55,-2.6 0.33,-0.74 0.83,-1.31 1.42,-1.72 0.6,-0.4 1.24,-0.68 1.92,-0.88 0.64,-0.17 1.34,-0.26 2.09,-0.26 0.47,0 0.96,0.03 1.48,0.09 0.49,0.08 1.01,0.17 1.5,0.34 0.49,0.14 0.91,0.37 1.24,0.66 0.34,0.25 0.5,0.6 0.5,0.94 0,0.37 -0.11,0.72 -0.31,1.09 -0.21,0.37 -0.5,0.54 -0.83,0.54 -0.18,0 -0.42,-0.08 -0.7,-0.26 -0.29,-0.2 -0.67,-0.37 -1.17,-0.57 -0.49,-0.17 -1.06,-0.26 -1.71,-0.26 -0.98,0 -1.76,0.2 -2.35,0.66 -0.6,0.43 -0.88,1.09 -0.88,1.95 0,0.6 0.15,1.08 0.46,1.48 0.32,0.43 0.73,0.75 1.22,1.03 0.49,0.26 1.04,0.52 1.63,0.81 0.6,0.25 1.22,0.54 1.81,0.88 0.6,0.35 1.14,0.75 1.64,1.2 0.49,0.46 0.88,1.06 1.19,1.86 0.31,0.77 0.46,1.69 0.46,2.72 0,1.97 -0.54,3.49 -1.6,4.52 -1.09,1.03 -2.51,1.54 -4.3,1.54 -1.58,0 -2.93,-0.37 -4.04,-1.11 -1.11,-0.72 -1.68,-1.49 -1.68,-2.26zm12.87 1.89c0,-0.12 0.02,-0.2 0.02,-0.26l5.15 -18.54c0.21,-0.68 0.83,-1.03 1.84,-1.03 1.04,0 1.66,0.32 1.87,0.95l5.12 18.53c0.05,0.15 0.05,0.23 0.05,0.29 0,0.34 -0.2,0.66 -0.59,0.91 -0.42,0.26 -0.83,0.4 -1.3,0.4 -0.54,0 -0.88,-0.2 -1.01,-0.62l-1.06 -4.09 -6.37 0 -1.06 4.09c-0.1,0.42 -0.44,0.62 -0.96,0.62 -0.41,0 -0.8,-0.11 -1.16,-0.37 -0.36,-0.25 -0.54,-0.54 -0.54,-0.88zm4.34 -5.87l5.16 0 -2.62 -9.81 -2.54 9.81zm11.55 6.12l0 -18.93c0,-0.26 0.08,-0.49 0.26,-0.69 0.18,-0.2 0.39,-0.28 0.65,-0.28l4.92 0c3.96,0 5.95,1.94 5.95,5.83 0,1.6 -0.33,2.89 -0.98,3.81 -0.65,0.91 -1.56,1.51 -2.67,1.83l3.63 7.55c0.07,0.11 0.1,0.25 0.1,0.43 0,0.37 -0.18,0.71 -0.52,1.05 -0.36,0.32 -0.75,0.49 -1.14,0.49 -0.44,0 -0.8,-0.29 -1.08,-0.89l-3.78 -8.21 -2.62 0 0 8.01c0,0.32 -0.13,0.55 -0.39,0.72 -0.28,0.2 -0.59,0.28 -0.98,0.28 -0.36,0 -0.67,-0.08 -0.93,-0.28 -0.29,-0.17 -0.42,-0.4 -0.42,-0.72zm2.72 -10.41l3.11 0c2.15,0 3.21,-1.14 3.21,-3.4 0,-2.26 -1.06,-3.41 -3.21,-3.41l-3.11 0 0 6.81zm11.75 10.41l0 -18.93c0,-0.26 0.08,-0.49 0.26,-0.69 0.18,-0.2 0.39,-0.28 0.65,-0.28l4.92 0c3.96,0 5.95,1.94 5.95,5.83 0,1.6 -0.33,2.89 -0.98,3.81 -0.65,0.91 -1.55,1.51 -2.67,1.83l3.63 7.55c0.08,0.11 0.1,0.25 0.1,0.43 0,0.37 -0.18,0.71 -0.52,1.05 -0.36,0.32 -0.75,0.49 -1.13,0.49 -0.44,0 -0.81,-0.29 -1.09,-0.89l-3.78 -8.21 -2.62 0 0 8.01c0,0.32 -0.13,0.55 -0.39,0.72 -0.28,0.2 -0.59,0.28 -0.98,0.28 -0.36,0 -0.67,-0.08 -0.93,-0.28 -0.29,-0.17 -0.42,-0.4 -0.42,-0.72zm2.72 -10.41l3.11 0c2.15,0 3.21,-1.14 3.21,-3.4 0,-2.26 -1.06,-3.41 -3.21,-3.41l-3.11 0 0 6.81zm11.76 10.41l0 -18.93c0,-0.26 0.07,-0.49 0.26,-0.69 0.18,-0.2 0.38,-0.28 0.64,-0.28l4.92 0c3.96,0 5.96,1.94 5.96,5.83 0,1.6 -0.34,2.89 -0.99,3.81 -0.64,0.91 -1.55,1.51 -2.66,1.83l3.62 7.55c0.08,0.11 0.1,0.25 0.1,0.43 0,0.37 -0.18,0.71 -0.51,1.05 -0.37,0.32 -0.75,0.49 -1.14,0.49 -0.44,0 -0.8,-0.29 -1.09,-0.89l-3.78 -8.21 -2.61 0 0 8.01c0,0.32 -0.13,0.55 -0.39,0.72 -0.29,0.2 -0.6,0.28 -0.99,0.28 -0.36,0 -0.67,-0.08 -0.93,-0.28 -0.28,-0.17 -0.41,-0.4 -0.41,-0.72zm2.72 -10.41l3.1 0c2.15,0 3.21,-1.14 3.21,-3.4 0,-2.26 -1.06,-3.41 -3.21,-3.41l-3.1 0 0 6.81zm11.57 5.21l0 -8.33c0,-2.2 0.52,-3.8 1.58,-4.83 1.06,-1.03 2.46,-1.54 4.22,-1.54 1.76,0 3.18,0.51 4.24,1.54 1.07,1.03 1.58,2.63 1.58,4.83l0 8.33c0,2.2 -0.51,3.8 -1.58,4.83 -1.06,1.03 -2.48,1.55 -4.24,1.55 -1.76,0 -3.16,-0.52 -4.22,-1.55 -1.06,-1.03 -1.58,-2.63 -1.58,-4.83zm2.74 0c0,2.46 1.01,3.69 3.06,3.69 0.98,0 1.73,-0.32 2.28,-0.92 0.54,-0.6 0.8,-1.54 0.8,-2.77l0 -8.33c0,-1.23 -0.26,-2.17 -0.8,-2.77 -0.55,-0.6 -1.3,-0.92 -2.28,-0.92 -2.05,0 -3.06,1.23 -3.06,3.69l0 8.33zm12.09 5.2l0 -18.93c0,-0.32 0.13,-0.57 0.42,-0.74 0.26,-0.15 0.57,-0.23 0.96,-0.23 0.38,0 0.69,0.08 0.98,0.23 0.26,0.17 0.39,0.42 0.39,0.74l0 17.25 6.73 0c0.26,0 0.47,0.14 0.62,0.4 0.13,0.25 0.21,0.57 0.21,0.94 0,0.37 -0.08,0.69 -0.21,0.94 -0.15,0.26 -0.36,0.4 -0.62,0.4l-8.26 0c-0.34,0 -0.62,-0.08 -0.85,-0.28 -0.24,-0.17 -0.37,-0.4 -0.37,-0.72zm12.35 0l0 -18.93c0,-0.32 0.13,-0.57 0.42,-0.74 0.26,-0.15 0.57,-0.23 0.96,-0.23 0.38,0 0.69,0.08 0.98,0.23 0.26,0.17 0.39,0.42 0.39,0.74l0 17.25 6.73 0c0.26,0 0.47,0.14 0.62,0.4 0.13,0.25 0.21,0.57 0.21,0.94 0,0.37 -0.08,0.69 -0.21,0.94 -0.15,0.26 -0.36,0.4 -0.62,0.4l-8.26 0c-0.34,0 -0.62,-0.08 -0.85,-0.28 -0.24,-0.17 -0.37,-0.4 -0.37,-0.72z"/>
   <path class="fil3" d="M239.77 474.46l0 -8.33c0,-2.2 0.52,-3.8 1.58,-4.83 1.06,-1.03 2.46,-1.54 4.22,-1.54 1.76,0 3.19,0.51 4.25,1.54 1.06,1.03 1.58,2.63 1.58,4.83l0 8.33c0,2.2 -0.52,3.8 -1.58,4.83 -1.06,1.03 -2.49,1.55 -4.25,1.55 -1.76,0 -3.16,-0.52 -4.22,-1.55 -1.06,-1.03 -1.58,-2.63 -1.58,-4.83zm2.75 0c0,2.46 1.01,3.69 3.05,3.69 0.98,0 1.74,-0.32 2.28,-0.92 0.54,-0.6 0.8,-1.54 0.8,-2.77l0 -8.33c0,-1.23 -0.26,-2.17 -0.8,-2.77 -0.54,-0.6 -1.3,-0.92 -2.28,-0.92 -2.04,0 -3.05,1.23 -3.05,3.69l0 8.33zm17.26 5.2l0 -18.93c0,-0.32 0.13,-0.57 0.42,-0.74 0.26,-0.15 0.57,-0.23 0.96,-0.23 0.39,0 0.7,0.08 0.98,0.23 0.26,0.17 0.39,0.42 0.39,0.74l0 7.89 6.45 0 0 -7.89c0,-0.32 0.13,-0.57 0.41,-0.74 0.26,-0.15 0.57,-0.23 0.96,-0.23 0.39,0 0.7,0.08 0.98,0.23 0.26,0.17 0.39,0.42 0.39,0.74l0 18.93c0,0.32 -0.13,0.55 -0.39,0.72 -0.28,0.2 -0.59,0.28 -0.98,0.28 -0.36,0 -0.67,-0.08 -0.96,-0.28 -0.28,-0.17 -0.41,-0.4 -0.41,-0.72l0 -8.63 -6.45 0 0 8.63c0,0.32 -0.13,0.55 -0.39,0.72 -0.28,0.2 -0.59,0.28 -0.98,0.28 -0.37,0 -0.68,-0.08 -0.96,-0.28 -0.29,-0.17 -0.42,-0.4 -0.42,-0.72zm15.28 -5.2l0 -13.73c0,-0.32 0.13,-0.57 0.41,-0.74 0.26,-0.15 0.57,-0.23 0.96,-0.23 0.39,0 0.7,0.08 0.99,0.23 0.26,0.17 0.38,0.42 0.38,0.74l0 13.73c0,1.23 0.29,2.17 0.83,2.77 0.55,0.6 1.32,0.92 2.33,0.92 2.13,0 3.19,-1.23 3.19,-3.69l0 -13.73c0,-0.32 0.13,-0.57 0.41,-0.74 0.26,-0.15 0.57,-0.23 0.96,-0.23 0.39,0 0.7,0.08 0.98,0.23 0.26,0.17 0.39,0.42 0.39,0.74l0 13.73c0,2.2 -0.54,3.8 -1.6,4.83 -1.09,1.03 -2.54,1.55 -4.33,1.55 -1.78,0 -3.21,-0.52 -4.27,-1.55 -1.09,-1.03 -1.63,-2.63 -1.63,-4.83zm15.17 5.2l0 -18.39c0,-0.51 0.13,-0.88 0.39,-1.14 0.26,-0.26 0.6,-0.37 0.98,-0.37 0.5,0 0.91,0.11 1.25,0.34 0.31,0.26 0.62,0.71 0.93,1.37l3.62 7.58 3.68 -7.58c0.31,-0.66 0.62,-1.11 0.93,-1.37 0.31,-0.23 0.73,-0.34 1.22,-0.34 0.39,0 0.72,0.11 0.98,0.37 0.26,0.26 0.39,0.63 0.39,1.14l0 18.39c0,0.32 -0.13,0.55 -0.39,0.72 -0.28,0.2 -0.59,0.28 -0.98,0.28 -0.36,0 -0.67,-0.08 -0.96,-0.28 -0.28,-0.17 -0.41,-0.4 -0.41,-0.72l0 -13.73 -3.47 7.1c-0.26,0.46 -0.6,0.68 -1.01,0.68 -0.42,0 -0.73,-0.22 -0.93,-0.68l-3.47 -7.27 0 13.9c0,0.32 -0.13,0.55 -0.39,0.72 -0.29,0.2 -0.6,0.28 -0.99,0.28 -0.36,0 -0.67,-0.08 -0.95,-0.28 -0.29,-0.17 -0.42,-0.4 -0.42,-0.72zm16.44 -0.25c0,-0.12 0.03,-0.2 0.03,-0.26l5.15 -18.54c0.21,-0.68 0.83,-1.03 1.84,-1.03 1.03,0 1.66,0.32 1.86,0.95l5.13 18.53c0.05,0.15 0.05,0.23 0.05,0.29 0,0.34 -0.21,0.66 -0.59,0.91 -0.42,0.26 -0.83,0.4 -1.3,0.4 -0.54,0 -0.88,-0.2 -1.01,-0.62l-1.06 -4.09 -6.37 0 -1.06 4.09c-0.1,0.42 -0.44,0.62 -0.96,0.62 -0.41,0 -0.8,-0.11 -1.16,-0.37 -0.37,-0.25 -0.55,-0.54 -0.55,-0.88zm4.35 -5.87l5.15 0 -2.61 -9.81 -2.54 9.81zm11.55 6.12l0 -18.9c0,-0.66 0.46,-1 1.37,-1 0.49,0 0.88,0.11 1.17,0.34 0.28,0.26 0.59,0.71 0.9,1.37l5.75 12.39 0 -13.13c0,-0.32 0.13,-0.57 0.41,-0.74 0.26,-0.15 0.57,-0.23 0.96,-0.23 0.39,0 0.7,0.08 0.99,0.23 0.25,0.17 0.38,0.42 0.38,0.74l0 18.93c0,0.32 -0.13,0.55 -0.38,0.72 -0.29,0.2 -0.6,0.28 -0.99,0.28 -0.72,0 -1.27,-0.37 -1.63,-1.11l-6.19 -13.01 0 13.12c0,0.32 -0.13,0.55 -0.39,0.72 -0.28,0.2 -0.59,0.28 -0.98,0.28 -0.36,0 -0.67,-0.08 -0.96,-0.28 -0.28,-0.17 -0.41,-0.4 -0.41,-0.72zm15.17 -5.2l0 -8.33c0,-2.2 0.52,-3.8 1.58,-4.83 1.06,-1.03 2.46,-1.54 4.22,-1.54 1.76,0 3.18,0.51 4.25,1.54 1.06,1.03 1.58,2.63 1.58,4.83l0 8.33c0,2.2 -0.52,3.8 -1.58,4.83 -1.07,1.03 -2.49,1.55 -4.25,1.55 -1.76,0 -3.16,-0.52 -4.22,-1.55 -1.06,-1.03 -1.58,-2.63 -1.58,-4.83zm2.74 0c0,2.46 1.01,3.69 3.06,3.69 0.98,0 1.73,-0.32 2.28,-0.92 0.54,-0.6 0.8,-1.54 0.8,-2.77l0 -8.33c0,-1.23 -0.26,-2.17 -0.8,-2.77 -0.55,-0.6 -1.3,-0.92 -2.28,-0.92 -2.05,0 -3.06,1.23 -3.06,3.69l0 8.33zm15.9 -13.45c0,-0.34 0.18,-0.62 0.57,-0.88 0.39,-0.26 0.78,-0.37 1.17,-0.37 0.38,0 0.67,0.23 0.9,0.68l4.27 9.07 4.25 -9.07c0.21,-0.45 0.52,-0.68 0.91,-0.68 0.38,0 0.77,0.11 1.16,0.37 0.36,0.26 0.55,0.54 0.55,0.88 0,0.18 -0.03,0.32 -0.08,0.43l-5.36 10.67c-0.03,0.12 -0.05,0.23 -0.05,0.32l0 7.23c0,0.32 -0.13,0.55 -0.42,0.72 -0.28,0.2 -0.59,0.28 -0.96,0.28 -0.38,0 -0.69,-0.08 -0.95,-0.28 -0.29,-0.17 -0.42,-0.4 -0.42,-0.72l0 -7.23c0,-0.03 -0.02,-0.15 -0.08,-0.32l-5.36 -10.67c-0.07,-0.14 -0.1,-0.28 -0.1,-0.43zm19.65 0.12c0,-0.34 0.08,-0.69 0.24,-0.94 0.15,-0.29 0.38,-0.43 0.67,-0.43l10.74 0c0.29,0 0.52,0.14 0.68,0.4 0.15,0.25 0.23,0.6 0.23,0.94 0,0.43 -0.08,0.77 -0.23,1.03 -0.19,0.29 -0.39,0.43 -0.68,0.43l-3.98 0 0 17.1c0,0.32 -0.13,0.55 -0.42,0.72 -0.28,0.2 -0.59,0.28 -0.96,0.28 -0.38,0 -0.7,-0.08 -0.95,-0.28 -0.29,-0.17 -0.42,-0.4 -0.42,-0.72l0 -17.1 -4.01 0c-0.29,0 -0.49,-0.14 -0.65,-0.43 -0.18,-0.26 -0.26,-0.6 -0.26,-1zm14.63 18.53l0 -18.9c0,-0.32 0.13,-0.55 0.36,-0.75 0.24,-0.17 0.52,-0.25 0.86,-0.25l9.21 0c0.29,0 0.52,0.14 0.68,0.4 0.15,0.25 0.23,0.57 0.23,0.91 0,0.37 -0.08,0.72 -0.23,0.97 -0.18,0.26 -0.39,0.4 -0.68,0.4l-7.69 0 0 6.55 3.99 0c0.29,0 0.49,0.12 0.67,0.35 0.16,0.26 0.24,0.54 0.24,0.88 0,0.32 -0.08,0.58 -0.24,0.81 -0.15,0.25 -0.38,0.37 -0.67,0.37l-3.99 0 0 6.58 7.69 0c0.29,0 0.5,0.14 0.68,0.4 0.15,0.25 0.23,0.6 0.23,0.97 0,0.34 -0.08,0.66 -0.23,0.91 -0.16,0.26 -0.39,0.4 -0.68,0.4l-9.21 0c-0.34,0 -0.62,-0.08 -0.86,-0.28 -0.23,-0.17 -0.36,-0.4 -0.36,-0.72z"/>
   <path class="fil3" d="M403.79 474.46l0 -8.33c0,-2.2 0.54,-3.8 1.6,-4.83 1.06,-1.03 2.44,-1.54 4.14,-1.54 1.76,0 3.19,0.48 4.28,1.43 1.06,0.97 1.6,2.23 1.6,3.74 0,0.6 -0.1,1.03 -0.31,1.23 -0.21,0.23 -0.57,0.35 -1.06,0.35 -0.91,0 -1.35,-0.35 -1.37,-1 -0.11,-2.04 -1.12,-3.07 -3.03,-3.07 -2.07,0 -3.11,1.23 -3.11,3.69l0 8.33c0,2.46 1.06,3.69 3.16,3.69 0.62,0 1.14,-0.12 1.55,-0.32 0.42,-0.2 0.73,-0.48 0.91,-0.86 0.18,-0.37 0.28,-0.71 0.36,-1 0.08,-0.28 0.13,-0.63 0.16,-1.05 0.05,-0.66 0.49,-1.01 1.34,-1.01 0.5,0 0.86,0.12 1.09,0.32 0.21,0.23 0.31,0.66 0.31,1.26 0,1.57 -0.54,2.86 -1.63,3.86 -1.09,1 -2.51,1.49 -4.27,1.49 -1.71,0 -3.08,-0.52 -4.14,-1.55 -1.07,-1.03 -1.58,-2.63 -1.58,-4.83zm14.18 5.2l0 -18.9c0,-0.66 0.47,-1 1.38,-1 0.49,0 0.88,0.11 1.16,0.34 0.29,0.26 0.6,0.71 0.91,1.37l5.75 12.39 0 -13.13c0,-0.32 0.12,-0.57 0.41,-0.74 0.26,-0.15 0.57,-0.23 0.96,-0.23 0.39,0 0.7,0.08 0.98,0.23 0.26,0.17 0.39,0.42 0.39,0.74l0 18.93c0,0.32 -0.13,0.55 -0.39,0.72 -0.28,0.2 -0.59,0.28 -0.98,0.28 -0.73,0 -1.27,-0.37 -1.63,-1.11l-6.19 -13.01 0 13.12c0,0.32 -0.13,0.55 -0.39,0.72 -0.28,0.2 -0.6,0.28 -0.98,0.28 -0.37,0 -0.68,-0.08 -0.96,-0.28 -0.29,-0.17 -0.42,-0.4 -0.42,-0.72zm15.18 -5.2l0 -8.33c0,-2.2 0.51,-3.8 1.58,-4.83 1.06,-1.03 2.45,-1.54 4.22,-1.54 1.76,0 3.18,0.51 4.24,1.54 1.06,1.03 1.58,2.63 1.58,4.83l0 8.33c0,2.2 -0.52,3.8 -1.58,4.83 -1.06,1.03 -2.48,1.55 -4.24,1.55 -1.77,0 -3.16,-0.52 -4.22,-1.55 -1.07,-1.03 -1.58,-2.63 -1.58,-4.83zm2.74 0c0,2.46 1.01,3.69 3.06,3.69 0.98,0 1.73,-0.32 2.27,-0.92 0.55,-0.6 0.81,-1.54 0.81,-2.77l0 -8.33c0,-1.23 -0.26,-2.17 -0.81,-2.77 -0.54,-0.6 -1.29,-0.92 -2.27,-0.92 -2.05,0 -3.06,1.23 -3.06,3.69l0 8.33zm12.09 5.2l0 -18.93c0,-0.32 0.13,-0.57 0.42,-0.74 0.25,-0.15 0.57,-0.23 0.95,-0.23 0.39,0 0.7,0.08 0.99,0.23 0.26,0.17 0.39,0.42 0.39,0.74l0 17.25 6.73 0c0.26,0 0.46,0.14 0.62,0.4 0.13,0.25 0.21,0.57 0.21,0.94 0,0.37 -0.08,0.69 -0.21,0.94 -0.16,0.26 -0.36,0.4 -0.62,0.4l-8.26 0c-0.34,0 -0.62,-0.08 -0.86,-0.28 -0.23,-0.17 -0.36,-0.4 -0.36,-0.72z"/>
   <path class="fil3" d="M459.84 474.46l0 -8.33c0,-2.2 0.52,-3.8 1.58,-4.83 1.06,-1.03 2.46,-1.54 4.22,-1.54 1.76,0 3.18,0.51 4.24,1.54 1.07,1.03 1.58,2.63 1.58,4.83l0 8.33c0,2.2 -0.51,3.8 -1.58,4.83 -1.06,1.03 -2.48,1.55 -4.24,1.55 -1.76,0 -3.16,-0.52 -4.22,-1.55 -1.06,-1.03 -1.58,-2.63 -1.58,-4.83zm2.74 0c0,2.46 1.01,3.69 3.06,3.69 0.98,0 1.73,-0.32 2.28,-0.92 0.54,-0.6 0.8,-1.54 0.8,-2.77l0 -8.33c0,-1.23 -0.26,-2.17 -0.8,-2.77 -0.55,-0.6 -1.3,-0.92 -2.28,-0.92 -2.05,0 -3.06,1.23 -3.06,3.69l0 8.33zm11.91 0l0 -8.33c0,-2.2 0.52,-3.8 1.58,-4.83 1.06,-1.03 2.44,-1.54 4.14,-1.54 1.74,0 3.16,0.48 4.28,1.43 1.08,0.97 1.63,2.26 1.63,3.86 0,0.54 -0.11,0.94 -0.31,1.14 -0.24,0.2 -0.57,0.32 -1.06,0.32 -0.91,0 -1.35,-0.35 -1.38,-1 -0.18,-2.04 -1.21,-3.07 -3.08,-3.07 -2.04,0 -3.05,1.23 -3.05,3.69l0 8.33c0,2.46 1.01,3.69 3.05,3.69 0.99,0 1.74,-0.32 2.28,-0.92 0.54,-0.63 0.8,-1.54 0.8,-2.8l0 -2.35 -2.61 0c-0.29,0 -0.49,-0.11 -0.65,-0.34 -0.15,-0.26 -0.23,-0.54 -0.23,-0.89 0,-0.28 0.08,-0.57 0.23,-0.8 0.16,-0.25 0.36,-0.37 0.65,-0.37l4.45 0c0.29,0 0.49,0.09 0.67,0.29 0.16,0.2 0.24,0.45 0.24,0.74l0 3.75c0,2.2 -0.52,3.8 -1.58,4.83 -1.06,1.03 -2.49,1.55 -4.25,1.55 -1.76,0 -3.16,-0.52 -4.22,-1.55 -1.06,-1.03 -1.58,-2.63 -1.58,-4.83zm14.58 5.2l0 -18.93c0,-0.32 0.13,-0.57 0.41,-0.74 0.26,-0.15 0.57,-0.23 0.96,-0.23 0.39,0 0.7,0.08 0.98,0.23 0.26,0.17 0.39,0.42 0.39,0.74l0 18.93c0,0.32 -0.13,0.55 -0.39,0.72 -0.28,0.2 -0.59,0.28 -0.98,0.28 -0.36,0 -0.67,-0.08 -0.96,-0.28 -0.28,-0.17 -0.41,-0.4 -0.41,-0.72zm4.81 -0.25c0,-0.12 0.03,-0.2 0.03,-0.26l5.15 -18.54c0.21,-0.68 0.83,-1.03 1.84,-1.03 1.04,0 1.66,0.32 1.87,0.95l5.12 18.53c0.05,0.15 0.05,0.23 0.05,0.29 0,0.34 -0.2,0.66 -0.59,0.91 -0.42,0.26 -0.83,0.4 -1.3,0.4 -0.54,0 -0.88,-0.2 -1.01,-0.62l-1.06 -4.09 -6.37 0 -1.06 4.09c-0.1,0.42 -0.44,0.62 -0.96,0.62 -0.41,0 -0.8,-0.11 -1.16,-0.37 -0.36,-0.25 -0.55,-0.54 -0.55,-0.88zm4.35 -5.87l5.16 0 -2.62 -9.81 -2.54 9.81z"/>
   <path class="fil4 str0" d="M287.45 138.92c15.81,0 28.63,12.82 28.63,28.62 0,15.81 -12.82,28.63 -28.63,28.63 -15.81,0 -28.62,-12.82 -28.62,-28.63 0,-15.8 12.81,-28.62 28.62,-28.62z"/>
   <path class="fil5" d="M276.44 188.58c-0.37,0.2 -1.52,1.32 -1.64,1.68 1.43,1.03 4.96,2.24 6.76,2.64 2.86,0.63 5.87,0.82 8.9,0.47 12.61,-1.47 22.34,-12.13 22.72,-25.15 0.1,-3.36 -0.47,-5.59 -1.2,-8.42 -0.72,0.34 -1.24,1.23 -1.9,1.71 0.04,0.77 0.38,1.88 0.51,2.78 0.15,1.1 0.24,1.91 0.25,3.07 0.09,8.64 -4.67,16.85 -12.03,20.82 -2.84,1.53 -6.34,2.85 -10.31,2.97l0 -19.63c4.19,-1.09 3.65,-7.85 -1.17,-7.85 -4.73,0 -5.45,6.63 -1.17,7.85l0.01 19.63c-5.11,-0.07 -9.15,-2.49 -9.73,-2.57z"/>
   <path class="fil5" d="M266.98 161.8c0.58,0.15 0.1,0.01 0.74,0.67 0.28,0.28 0.42,0.46 0.86,0.61 0.2,-0.37 0.1,-0.54 0.32,-0.84 0.28,-0.38 0.52,-0.28 0.48,-0.8l-3.38 -3.43c0.19,-1.2 2.57,-4.5 3.19,-5.25 3.72,-4.48 10.16,-8.41 16.64,-8.53 0.36,-0.21 0.87,-0.05 1.5,-0.05 0.65,0 1.26,-0.18 1.61,0.06 4,-0.01 9.12,2.18 12.21,4.46 1.64,1.21 3,2.45 4.33,4.06 0.71,0.85 2.93,3.97 3.23,5.28 -0.48,0.42 -6.18,6.09 -6.26,6.27 -0.42,0.95 0.4,5.2 -0.3,5.93l-3.21 3.16c-0.88,-0.15 -2.37,-0.67 -3.54,0.95 -0.88,1.22 -0.59,2.73 0.32,3.64 1.46,1.48 3.97,0.92 4.64,-1.06 0.33,-0.97 0.08,-1.26 -0.05,-2.16l3.15 -3.21c0.39,-0.39 0.82,-0.55 0.84,-1.29 0.03,-1.4 0,-2.91 -0.02,-4.31 -0.01,-1.06 0.14,-0.99 0.67,-1.51 0.29,-0.29 0.82,-0.75 1,-1.06 0.02,-0.02 0.05,-0.09 0.07,-0.07l1.72 -1.74c0.32,-0.17 3.35,-3.22 3.56,-3.57 -1.33,-4.02 -5.35,-8.83 -8.76,-11.23 -9.45,-6.66 -20.71,-6.64 -30.34,-0.04 -3.56,2.43 -7.56,7.37 -8.82,11.27 0.41,0.72 3.19,3.05 3.6,3.79z"/>
   <path class="fil5" d="M266.98 161.8c0.58,0.15 0.1,0.01 0.74,0.67 0.28,0.28 0.42,0.46 0.86,0.61 0.2,-0.37 0.1,-0.54 0.32,-0.84 0.28,-0.38 0.52,-0.28 0.48,-0.8l-3.38 -3.43c0.19,-1.2 2.57,-4.5 3.19,-5.25 3.72,-4.48 10.16,-8.41 16.64,-8.53 0.36,-0.21 0.87,-0.05 1.5,-0.05 0.65,0 1.26,-0.18 1.61,0.06 4,-0.01 9.12,2.18 12.21,4.46 1.64,1.21 3,2.45 4.33,4.06 0.71,0.85 2.93,3.97 3.23,5.28 -0.48,0.42 -6.18,6.09 -6.26,6.27 -0.42,0.95 0.4,5.2 -0.3,5.93l-3.21 3.16c-0.88,-0.15 -2.37,-0.67 -3.54,0.95 -0.88,1.22 -0.59,2.73 0.32,3.64 1.46,1.48 3.97,0.92 4.64,-1.06 0.33,-0.97 0.08,-1.26 -0.05,-2.16l3.15 -3.21c0.39,-0.39 0.82,-0.55 0.84,-1.29 0.03,-1.4 0,-2.91 -0.02,-4.31 -0.01,-1.06 0.14,-0.99 0.67,-1.51 0.29,-0.29 0.82,-0.75 1,-1.06 0.02,-0.02 0.05,-0.09 0.07,-0.07l1.72 -1.74c0.32,-0.17 3.35,-3.22 3.56,-3.57 -1.33,-4.02 -5.35,-8.83 -8.76,-11.23 -9.45,-6.66 -20.71,-6.64 -30.34,-0.04 -3.56,2.43 -7.56,7.37 -8.82,11.27 0.41,0.72 3.19,3.05 3.6,3.79z"/>
   <path class="fil5" d="M268.7 163.39l-0.11 -0.23c0,0 0,-0.02 0,-0.03l0.87 -0.97c0.36,-0.28 -0.02,-0.2 0.49,-0.16l-0.57 -0.56c0.04,0.52 -0.2,0.42 -0.48,0.8 -0.22,0.3 -0.12,0.47 -0.32,0.84 -0.44,-0.15 -0.58,-0.33 -0.86,-0.61 -0.64,-0.66 -0.16,-0.52 -0.74,-0.67 -1.71,6.87 -0.5,12.9 2.81,17.73 1.74,2.55 3.18,3.76 5.57,5.6 1.49,1.14 5.67,3.13 7.92,3.31 0.12,-2.51 0.02,-5.23 0.02,-7.76 0,-2.54 0.12,-5.36 0,-7.85 -0.03,-0.72 -0.35,-0.85 -0.74,-1.23l-2.91 -2.9c-0.5,-0.5 -0.35,-0.64 -0.34,-1.56l0.01 -5.91c0.79,-0.57 2.08,-1.11 1.85,-3.1 -0.36,-3.11 -5.03,-3.18 -5.56,-0.22 -0.4,2.2 1.07,2.78 1.81,3.32 0.11,2.24 0.03,4.83 0.01,7.1 -0.01,1.21 0.2,0.99 1.36,2.2 3.02,3.14 2.64,1.89 2.64,4.56 0,3.48 0.08,7.53 -0.01,10.88 -1.52,-0.06 -5.11,-2.39 -6.02,-3.13 -4.7,-3.81 -7.44,-9.17 -7.38,-15.49 0.01,-0.65 0.21,-2.94 0.39,-3.55 0.15,-0.51 0.06,-0.26 0.29,-0.41z"/>
   <path class="fil5" d="M307.74 161.58l-1.72 1.74c-0.02,-0.02 -0.05,0.05 -0.07,0.07 0.18,0.12 0.22,-0.15 0.37,0.76 0.19,1.16 0.31,1.82 0.33,3.1 0.01,1.46 -0.1,2.84 -0.37,4.21 -0.96,4.71 -3.47,8.54 -7.01,11.38 -1.03,0.82 -4.41,2.98 -6,3.18 -0.17,-1.59 -0.03,-8.24 -0.03,-10.71 0,-2.84 -0.45,-1.64 2.52,-4.68 1.1,-1.13 1.48,-1.1 1.48,-2.2 -0.01,-2.4 -0.01,-4.81 0,-7.21 3.43,-1.8 1.73,-5.46 -0.88,-5.51 -2.52,-0.04 -3.59,2.73 -2.41,4.38 0.53,0.75 0.65,0.62 1.4,1.14l0.01 5.8c0,0.78 0.15,1.19 -0.28,1.62 -0.61,0.62 -1.39,1.31 -1.95,1.92 -0.36,0.37 -0.6,0.61 -0.96,0.97 -0.49,0.49 -0.77,0.5 -0.8,1.29 -0.1,2.48 0,5.22 0,7.74 0,2.56 -0.11,5.33 0.02,7.86 2.22,-0.12 6.26,-2.12 7.85,-3.26 6.93,-4.95 10.35,-12.57 8.95,-21.16 -0.13,-0.8 -0.5,-1.66 -0.45,-2.43z"/>
   <path class="fil5" d="M270.66 187.34c0.63,0.03 -0.18,0.03 0.7,-0.72 0.37,-0.31 0.7,-0.36 1.26,-0.33 0.25,-0.23 0.15,0.14 0,-0.24 -0.14,-0.24 -0.78,-0.7 -1.03,-0.91 -0.41,-0.36 -0.7,-0.71 -1.06,-1.08 -4.73,-4.82 -7.42,-11.95 -6.58,-18.82 0.14,-1.13 0.6,-2.81 0.64,-3.73 -0.67,-0.48 -1.26,-1.43 -1.86,-1.68 -0.83,1.61 -1.28,6.04 -1.26,8.17 0.06,5.78 2.16,11.51 5.66,15.8 0.34,0.41 0.75,0.94 1.07,1.29 0.33,0.36 2.21,2.21 2.46,2.25z"/>
   <path class="fil5" d="M268.7 163.39c0.22,0.31 0.67,0.71 0.97,1.01 0.49,0.49 0.72,0.45 0.71,1.45 -0.01,1.43 -0.02,2.88 -0.01,4.31 0.01,0.9 0.84,1.41 1.86,2.42 0.59,0.59 1.68,1.57 2.14,2.19 -0.31,1.68 -0.27,2.61 0.95,3.53 2.44,1.84 5.74,-1.3 3.99,-3.89 -1.13,-1.65 -2.63,-1.18 -3.58,-1.01 -0.72,-0.58 -1.5,-1.47 -2.18,-2.14 -1.52,-1.49 -1.27,-0.9 -1.27,-3.04 0,-0.73 0.17,-3.67 -0.2,-4.09 -0.62,-0.73 -1.49,-1.4 -2.13,-2.13 -0.51,-0.04 -0.13,-0.12 -0.49,0.16l-0.87 0.97c0,0.01 0,0.03 0,0.03l0.11 0.23z"/>
   <path class="fil5" d="M288.94 144.24c-0.35,-0.24 -0.96,-0.06 -1.61,-0.06 -0.63,0 -1.14,-0.16 -1.5,0.05l0.55 0 0 11.63c-3.05,1.38 -2.07,5.47 0.95,5.49 3.05,0.01 3.99,-4.2 0.97,-5.49l-0.02 -10.96c0,-0.09 0,-0.24 0.02,-0.32 0.1,-0.63 -0.25,0.25 0.11,-0.35l0.53 0.01z"/>
   <path class="fil5" d="M270.66 187.34l0.51 0.49c0.98,0.77 2.57,1.97 3.63,2.43 0.12,-0.36 1.27,-1.48 1.64,-1.68 -0.15,-0.18 0.04,0 -0.17,-0.16 -0.07,-0.04 -0.18,-0.11 -0.27,-0.17 -0.21,-0.12 -0.29,-0.17 -0.47,-0.28l-2.91 -1.92c0.15,0.38 0.25,0.01 0,0.24 -0.56,-0.03 -0.89,0.02 -1.26,0.33 -0.88,0.75 -0.07,0.75 -0.7,0.72z"/>
   <path class="fil5" d="M286.78 166.13c-2.02,0.71 -1.04,3.89 1.16,3.12 0.73,-0.26 1.29,-1.19 0.95,-2.16 -0.26,-0.72 -1.07,-1.32 -2.11,-0.96z"/>
   <path class="fil5" d="M278.09 157.66c-1.18,0.41 -0.63,2.14 0.62,1.73 1.06,-0.35 0.57,-2.15 -0.62,-1.73z"/>
   <path class="fil5" d="M276.59 175.18c-1.15,0.55 -0.35,2.14 0.78,1.66 1,-0.43 0.38,-2.21 -0.78,-1.66z"/>
   <path class="fil5" d="M295.96 157.69c-1.24,0.58 -0.35,2.19 0.77,1.67 0.91,-0.43 0.37,-2.21 -0.77,-1.67z"/>
   <path class="fil5" d="M297.39 175.14c-1.08,0.36 -0.62,2.14 0.63,1.73 1.06,-0.35 0.59,-2.13 -0.63,-1.73z"/>
   <path class="fil5" d="M286.95 157.71c-1.18,0.61 -0.24,2.17 0.78,1.66 0.96,-0.48 0.39,-2.26 -0.78,-1.66z"/>
  </g>
  <rect class="fil6 str1" x="0.14" y="0.14" width="608.98" height="609.22"/>
 </g>
</svg>
