<?xml version="1.0" encoding="UTF-8"?>
<!DOCTYPE svg PUBLIC "-//W3C//DTD SVG 1.1//EN" "http://www.w3.org/Graphics/SVG/1.1/DTD/svg11.dtd">
<!-- Creator: CorelDRAW 2021 (64-Bit) -->
<svg xmlns="http://www.w3.org/2000/svg" xml:space="preserve" width="7532px" height="6941px" version="1.1" style="shape-rendering:geometricPrecision; text-rendering:geometricPrecision; image-rendering:optimizeQuality; fill-rule:evenodd; clip-rule:evenodd"
viewBox="0 0 2872.28 2646.84"
 xmlns:xlink="http://www.w3.org/1999/xlink"
 xmlns:xodm="http://www.corel.com/coreldraw/odm/2003">
 <defs>
  <style type="text/css">
   <![CDATA[
    .str0 {stroke:#F58634;stroke-width:0.34;stroke-miterlimit:22.9256}
    .str1 {stroke:#FEFEFE;stroke-width:0.9;stroke-linecap:round;stroke-linejoin:round;stroke-miterlimit:22.9256}
    .fil3 {fill:none}
    .fil0 {fill:#EF4E36}
    .fil2 {fill:#EF4E36;fill-rule:nonzero}
    .fil1 {fill:#004F87;fill-rule:nonzero}
   ]]>
  </style>
 </defs>
 <g id="Capa_x0020_1">
  <metadata id="CorelCorpID_0Corel-Layer"/>
  <g id="_2195640481008">
   <g>
    <path class="fil0" d="M996.1 769.78l903.59 -2.67 1.07 42.3 -904.4 -1.94 -0.26 -37.69zm36.35 -370.82l264.38 0 0 119.27c24.82,-0.18 47.85,-1.24 67.79,-3.92 23.96,-39.29 1.36,-29.76 44.08,-44.98 -19.22,-31.81 -69.56,-76.28 -36.04,-150.5 76.09,-168.45 335.3,0.66 179.61,138.1 1.43,1.39 3.69,2.98 4.69,3.73 45.8,34.65 47.3,52.55 60.89,56.28l415.05 1.07 0.35 961.11c-9.23,56.98 -30.49,-34.35 -29.43,81.68 28.63,12.18 49.24,15.19 62.8,41.35 12.61,24.33 11.9,58.92 1.48,82.1 -23.18,51.58 -88.67,43.49 -156.19,43.37l-135.07 -0.06 0 -48.49 -532.36 0 0 48.26 -133.08 -0.05c-68.71,0.03 -139.59,11.01 -165.08,-42.61 -40.45,-85.1 35.83,-92.68 50.81,-132.04l-1.25 -57.18c-112.31,-77.58 -147.51,-51.76 -148.03,-269.56 -0.32,-136.11 -0.03,-272.3 -0.04,-408.42 -0.02,-154.9 4.74,-238.52 123.86,-286.78 16.53,-6.7 37.28,-10.87 60.78,-13.36l0 -118.37zm-35.25 747.26l907.83 -0.67 1.52 39.5 -452.08 6.86c-151.27,-0.02 -305.6,3.34 -456.51,-0.15l-0.76 -45.54zm0.04 -131.5l909.91 -0.87 -1.89 40.5c-42.22,17.35 -797.02,8.72 -906.08,5.46l-1.94 -45.09zm1.22 -128.3l908.99 0.02 -1.71 44.05 -908.64 2.87 1.36 -46.94zm401.69 -501.89c-15.81,-116.35 145.45,-131.19 160.05,-31.38 15.91,108.79 -146.94,127.82 -160.05,31.38z"/>
    <path class="fil0" d="M2083.75 1496.71c331.79,23.72 334.64,-122.29 329.15,-367.27l63.41 0 0 -241.78 -63.87 0c5.19,-264.97 6.44,-386.89 -328.18,-369.89l-0.51 978.94z"/>
    <path class="fil0" d="M804.47 1392.87l0.98 -782.99c-83.34,-7.52 -92.93,70.68 -93.21,142.12l-0.2 490.32c0.45,87.53 5.6,145.27 92.43,150.55z"/>
    <path class="fil0" d="M410.26 933.41c-22.08,25.09 -14.79,96.94 -3.3,122.93l203.75 16.46c5.25,10.65 2.53,8.27 8.39,17.31 9.71,15.02 -3.36,16.28 28.18,20.01 33.65,3.98 41.92,-19.39 43.79,-48.33 3.57,-55.11 5.27,-130.71 -10.92,-172.19 -98.18,-11.69 -14.95,32.82 -123.66,31.29 -43.19,-0.61 -117.85,-12.49 -146.23,12.52z"/>
   </g>
   <g>
    <path class="fil1" d="M709.82 2068.28l21.59 0c10.34,0 18.52,-3.53 24.45,-10.52 5.94,-7.06 8.91,-16.65 8.91,-28.93 0,-12 -2.92,-21.25 -8.7,-27.81 -5.78,-6.56 -14.02,-9.81 -24.66,-9.81l-21.59 0 0 77.07zm0 -127.04l17.24 0c10.18,0 18.11,-3.1 23.89,-9.24 5.73,-6.14 8.6,-14.83 8.6,-25.98 0,-11.22 -2.71,-19.4 -8.19,-24.63 -5.42,-5.29 -13.91,-7.9 -25.52,-7.9l-16.02 0 0 67.75zm-47.27 181.24l0 -299.81 67.17 0c25.33,0 44.41,6.36 57.35,19.13 12.94,12.77 19.44,31.69 19.44,56.81 0,15.32 -2.97,28.3 -8.85,38.96 -5.93,10.73 -14.84,18.99 -26.76,24.91 13.25,4.17 23.59,12.64 31.11,25.55 7.52,12.92 11.25,28.66 11.25,47.22 0,28.79 -7.72,50.53 -23.17,65.21 -15.45,14.68 -38.32,22.02 -68.6,22.02l-58.94 0zm228.01 -149.9c0,26.04 5.53,47.92 16.58,65.49 11.05,17.57 24.65,26.4 40.82,26.4 16.27,0 29.93,-8.76 40.92,-26.26 11,-17.57 16.48,-39.45 16.48,-65.63 0,-26.33 -5.48,-48.35 -16.48,-65.92 -10.99,-17.57 -24.65,-26.4 -40.92,-26.4 -16.17,0 -29.77,8.83 -40.82,26.4 -11.05,17.57 -16.58,39.59 -16.58,65.92zm-53.41 0c0,-22.23 2.77,-42.98 8.34,-62.32 5.53,-19.41 13.71,-36.7 24.51,-52.02 10.18,-14.61 22.04,-25.83 35.55,-33.59 13.45,-7.83 27.62,-11.72 42.41,-11.72 14.78,0 28.95,3.96 42.51,11.79 13.56,7.83 25.58,19.2 36.07,33.95 10.58,14.75 18.62,31.76 24.04,51.17 5.47,19.33 8.18,40.29 8.18,62.74 0,18.77 -1.89,36.41 -5.67,52.93 -3.84,16.51 -9.47,31.62 -16.99,45.31 -10.59,19.41 -23.58,34.51 -39.03,45.24 -15.45,10.8 -31.82,16.16 -49.11,16.16 -14.68,0 -28.75,-3.95 -42.21,-11.79 -13.45,-7.83 -25.37,-19.19 -35.75,-33.94 -10.8,-15.25 -18.98,-32.54 -24.51,-51.81 -5.57,-19.19 -8.34,-39.94 -8.34,-62.1zm305.05 95.7l21.59 0c10.33,0 18.52,-3.53 24.45,-10.52 5.94,-7.06 8.9,-16.65 8.9,-28.93 0,-12 -2.91,-21.25 -8.69,-27.81 -5.78,-6.56 -14.02,-9.81 -24.66,-9.81l-21.59 0 0 77.07zm0 -127.04l17.24 0c10.18,0 18.11,-3.1 23.89,-9.24 5.73,-6.14 8.59,-14.83 8.59,-25.98 0,-11.22 -2.71,-19.4 -8.18,-24.63 -5.42,-5.29 -13.92,-7.9 -25.53,-7.9l-16.01 0 0 67.75zm-47.27 181.24l0 -299.81 67.17 0c25.32,0 44.4,6.36 57.35,19.13 12.94,12.77 19.44,31.69 19.44,56.81 0,15.32 -2.97,28.3 -8.85,38.96 -5.94,10.73 -14.84,18.99 -26.76,24.91 13.25,4.17 23.59,12.64 31.1,25.55 7.52,12.92 11.26,28.66 11.26,47.22 0,28.79 -7.73,50.53 -23.17,65.21 -15.45,14.68 -38.32,22.02 -68.61,22.02l-58.93 0zm188.72 0l0 -299.81 51.87 0 0 299.81 -51.87 0zm102.52 0l0 -309.55 4.96 0 135.31 174.96 0 -165.22 47.88 0 0 311.24 -4.5 0 -135.77 -174.95 0 163.52 -47.88 0zm285.09 -95.28l57.09 0 -28.18 -93.86 -28.91 93.86zm-81.34 95.28l110.86 -309.12 3.28 0 108.4 309.12 -54.28 0 -13.76 -43.62 -88.2 0 -14.06 43.62 -52.24 0zm290.06 -64.37l11.41 0c22.66,0 40.41,-7.55 53.2,-22.72 12.79,-15.17 19.19,-36.07 19.19,-62.81 0,-26.75 -6.4,-47.71 -19.19,-63.03 -12.79,-15.31 -30.54,-22.93 -53.2,-22.93l-11.41 0 0 171.49zm-51.26 64.37l0 -299.81 57.71 0c40.57,0 72.39,13.34 95.36,40.09 22.96,26.75 34.47,63.38 34.47,109.82 0,27.8 -4.55,52.58 -13.65,74.1 -9.06,21.6 -22.41,39.31 -40.01,53.29 -10.03,7.97 -20.87,13.69 -32.64,17.22 -11.71,3.52 -26.24,5.29 -43.53,5.29l-57.71 0zm263.67 -149.9c0,26.04 5.52,47.92 16.57,65.49 11.05,17.57 24.66,26.4 40.82,26.4 16.27,0 29.93,-8.76 40.93,-26.26 11,-17.57 16.47,-39.45 16.47,-65.63 0,-26.33 -5.47,-48.35 -16.47,-65.92 -11,-17.57 -24.66,-26.4 -40.93,-26.4 -16.16,0 -29.77,8.83 -40.82,26.4 -11.05,17.57 -16.57,39.59 -16.57,65.92zm-53.41 0c0,-22.23 2.76,-42.98 8.34,-62.32 5.52,-19.41 13.71,-36.7 24.5,-52.02 10.18,-14.61 22.05,-25.83 35.55,-33.59 13.46,-7.83 27.63,-11.72 42.41,-11.72 14.79,0 28.96,3.96 42.52,11.79 13.55,7.83 25.57,19.2 36.06,33.95 10.59,14.75 18.62,31.76 24.04,51.17 5.48,19.33 8.19,40.29 8.19,62.74 0,18.77 -1.89,36.41 -5.68,52.93 -3.84,16.51 -9.46,31.62 -16.98,45.31 -10.59,19.41 -23.59,34.51 -39.04,45.24 -15.44,10.8 -31.82,16.16 -49.11,16.16 -14.68,0 -28.75,-3.95 -42.2,-11.79 -13.45,-7.83 -25.37,-19.19 -35.76,-33.94 -10.79,-15.25 -18.98,-32.54 -24.5,-51.81 -5.58,-19.19 -8.34,-39.94 -8.34,-62.1zm247.95 65.21c13.36,11.29 24.71,19.12 34.08,23.71 9.31,4.52 18.41,6.78 27.31,6.78 8.96,0 16.17,-2.76 21.64,-8.19 5.43,-5.43 8.14,-12.42 8.14,-20.96 0,-12.21 -9.67,-26.04 -29.06,-41.29 -3.12,-2.47 -5.53,-4.44 -7.21,-5.78l-14.69 -11.44c-14.27,-11.15 -24.86,-23.78 -31.71,-37.83 -6.91,-14.04 -10.34,-29.99 -10.34,-47.78 0,-24.13 6.6,-43.89 19.8,-59.35 13.15,-15.46 30.18,-23.15 51.06,-23.15 7.72,0 16.06,1.27 25.01,3.74 9,2.47 18.98,6.35 29.98,11.58l0 70.22c-10.49,-9.03 -20.41,-16.02 -29.83,-20.96 -9.41,-4.94 -17.39,-7.41 -23.99,-7.41 -7.31,0 -13.04,2.18 -17.24,6.49 -4.19,4.31 -6.29,10.23 -6.29,17.64 0,5.23 1.23,10.1 3.73,14.61 2.51,4.59 6.25,8.68 11.26,12.42l25.47 19.41c21.34,16.31 35.66,31.34 43.03,45.1 7.36,13.83 11.05,30.14 11.05,49.05 0,29.22 -7.22,52.86 -21.64,70.86 -14.48,18 -33.61,26.96 -57.5,26.96 -8.08,0 -16.88,-1.2 -26.4,-3.53 -9.46,-2.33 -19.95,-6 -31.31,-10.94l-4.35 -79.96z"/>
    <path class="fil2 str0" d="M678.18 2390.18l0 -216.55 41.69 0 0 216.55 -41.69 0zm82.4 0l0 -223.59 3.99 0 108.75 126.38 0 -119.34 38.49 0 0 224.81 -3.62 0 -109.13 -126.37 0 118.11 -38.48 0zm232.36 -46.49l9.17 0c18.21,0 32.48,-5.45 42.76,-16.41 10.28,-10.96 15.42,-26.05 15.42,-45.37 0,-19.32 -5.14,-34.47 -15.42,-45.53 -10.28,-11.06 -24.55,-16.57 -42.76,-16.57l-9.17 0 0 123.88zm-41.2 46.49l0 -216.55 46.38 0c32.6,0 58.18,9.63 76.64,28.95 18.46,19.32 27.72,45.78 27.72,79.33 0,20.08 -3.66,37.98 -10.98,53.52 -7.28,15.6 -18.01,28.4 -32.16,38.49 -8.06,5.76 -16.77,9.89 -26.23,12.44 -9.42,2.55 -21.09,3.82 -34.99,3.82l-46.38 0zm219.32 -216.55l0 118.98c0,19.12 2.84,33.44 8.51,42.93 5.64,9.53 14.23,14.27 25.74,14.27 11.06,0 19.53,-4.44 25.33,-13.31 5.84,-8.82 8.76,-21.71 8.76,-38.64l0 -124.23 37.25 0 0 124.23c0,31.25 -6.45,55.67 -19.41,73.16 -12.91,17.48 -30.88,26.2 -53.86,26.2 -23.23,0 -41.28,-8.67 -54.19,-26 -12.87,-17.33 -19.33,-41.7 -19.33,-73.05l0 -124.54 41.2 0zm135.98 155.38c10.73,8.16 19.86,13.82 27.38,17.13 7.49,3.26 14.81,4.89 21.96,4.89 7.2,0 12.99,-1.99 17.39,-5.91 4.36,-3.93 6.54,-8.97 6.54,-15.14 0,-8.82 -7.77,-18.81 -23.35,-29.82 -2.51,-1.79 -4.44,-3.22 -5.8,-4.18l-11.8 -8.26c-11.47,-8.06 -19.99,-17.18 -25.5,-27.33 -5.55,-10.14 -8.3,-21.66 -8.3,-34.51 0,-17.43 5.3,-31.71 15.91,-42.87 10.57,-11.17 24.26,-16.72 41.04,-16.72 6.21,0 12.91,0.91 20.1,2.7 7.24,1.78 15.26,4.59 24.1,8.36l0 50.72c-8.43,-6.52 -16.41,-11.57 -23.97,-15.14 -7.57,-3.57 -13.98,-5.35 -19.29,-5.35 -5.88,0 -10.48,1.58 -13.85,4.69 -3.38,3.11 -5.06,7.39 -5.06,12.74 0,3.78 0.99,7.29 3,10.56 2.01,3.31 5.02,6.27 9.05,8.97l20.47 14.02c17.15,11.77 28.66,22.63 34.58,32.57 5.92,9.99 8.88,21.77 8.88,35.43 0,21.11 -5.79,38.19 -17.39,51.19 -11.63,12.99 -27.01,19.47 -46.21,19.47 -6.5,0 -13.57,-0.87 -21.22,-2.55 -7.61,-1.68 -16.04,-4.33 -25.17,-7.9l-3.49 -57.76zm179.31 61.17l0 -171.28 -55.5 0 0 -45.27 152.46 0 0 45.27 -55.26 0 0 171.28 -41.7 0zm164.31 -177.09l-6.86 0 0 59.95 8.8 0c10.52,0 18.54,-2.66 24.09,-7.91 5.55,-5.25 8.31,-12.84 8.31,-22.68 0,-10.35 -2.68,-17.79 -8.06,-22.43 -5.39,-4.64 -14.15,-6.93 -26.28,-6.93zm-47.32 177.09l0 -216.55 44.9 0c14.39,0 25.53,1.17 33.47,3.52 7.93,2.34 14.92,6.21 21.05,11.72 6.5,5.76 11.55,12.9 15.13,21.41 3.58,8.51 5.35,17.49 5.35,26.92 0,13.66 -2.8,25.59 -8.39,35.84 -5.59,10.24 -13.65,18.25 -24.18,24.06l53.29 93.08 -47.61 0 -46.63 -85.03 -5.92 0 0 85.03 -40.46 0zm157.68 0l0 -216.55 41.7 0 0 216.55 -41.7 0zm120.4 -68.82l45.89 0 -22.66 -67.8 -23.23 67.8zm-65.38 68.82l89.1 -223.28 2.63 0 87.13 223.28 -43.62 0 -11.06 -31.5 -70.89 0 -11.31 31.5 -41.98 0zm191.94 0l0 -216.55 41.69 0 0 170.06 68.09 0 0 46.49 -109.78 0zm130.22 0l0 -216.55 107.57 0 0 44.65 -67.11 0 0 39.16 57.48 0 0 44.35 -57.48 0 0 42.82 68.09 0 0 45.57 -108.55 0zm132.44 -61.17c10.73,8.16 19.86,13.82 27.39,17.13 7.48,3.26 14.8,4.89 21.95,4.89 7.2,0 13,-1.99 17.4,-5.91 4.36,-3.93 6.53,-8.97 6.53,-15.14 0,-8.82 -7.77,-18.81 -23.35,-29.82 -2.51,-1.79 -4.44,-3.22 -5.8,-4.18l-11.8 -8.26c-11.47,-8.06 -19.98,-17.18 -25.49,-27.33 -5.55,-10.14 -8.31,-21.66 -8.31,-34.51 0,-17.43 5.31,-31.71 15.91,-42.87 10.57,-11.17 24.26,-16.72 41.04,-16.72 6.21,0 12.91,0.91 20.11,2.7 7.23,1.78 15.25,4.59 24.09,8.36l0 50.72c-8.43,-6.52 -16.4,-11.57 -23.97,-15.14 -7.57,-3.57 -13.98,-5.35 -19.28,-5.35 -5.88,0 -10.49,1.58 -13.86,4.69 -3.37,3.11 -5.06,7.39 -5.06,12.74 0,3.78 0.99,7.29 3,10.56 2.02,3.31 5.02,6.27 9.05,8.97l20.48 14.02c17.14,11.77 28.66,22.63 34.58,32.57 5.92,9.99 8.88,21.77 8.88,35.43 0,21.11 -5.8,38.19 -17.39,51.19 -11.64,12.99 -27.02,19.47 -46.22,19.47 -6.5,0 -13.57,-0.87 -21.22,-2.55 -7.61,-1.68 -16.03,-4.33 -25.16,-7.9l-3.5 -57.76z"/>
   </g>
  </g>
  <rect class="fil3 str1" x="0.45" y="0.45" width="2871.38" height="2645.94"/>
 </g>
</svg>
