<?xml version="1.0" encoding="UTF-8"?>
<!DOCTYPE svg PUBLIC "-//W3C//DTD SVG 1.1//EN" "http://www.w3.org/Graphics/SVG/1.1/DTD/svg11.dtd">
<!-- Creator: CorelDRAW 2021 (64-Bit) -->
<svg xmlns="http://www.w3.org/2000/svg" xml:space="preserve" width="5794px" height="5794px" version="1.1" style="shape-rendering:geometricPrecision; text-rendering:geometricPrecision; image-rendering:optimizeQuality; fill-rule:evenodd; clip-rule:evenodd"
viewBox="0 0 400.58 400.58"
 xmlns:xlink="http://www.w3.org/1999/xlink"
 xmlns:xodm="http://www.corel.com/coreldraw/odm/2003">
 <defs>
  <style type="text/css">
   <![CDATA[
    .str0 {stroke:#FEFEFE;stroke-width:0.16;stroke-linecap:round;stroke-linejoin:round;stroke-miterlimit:22.9256}
    .fil2 {fill:none}
    .fil1 {fill:#562411}
    .fil0 {fill:#FB9D00}
   ]]>
  </style>
 </defs>
 <g id="Capa_x0020_1">
  <metadata id="CorelCorpID_0Corel-Layer"/>
  <g id="_2195783415984">
   <path class="fil0" d="M258.78 178.2c-1.15,0.85 -2.31,1.66 -3.27,2.25l-1.43 0.79c-0.36,0.16 -1.13,0.5 -1.97,0.5 -3.23,0 -4.72,-2.56 -4.72,-4.03 0,-1 0.37,-1.78 1.19,-2.56 0.61,-0.58 1.57,-1.27 2.95,-2.25l2.96 -2.31c1.22,-0.99 2.59,-2.16 3.89,-3.42 2.77,-2.69 4.44,-5.1 4.44,-6.63l-0.67 -0.41c-12.07,0 -40.42,27.33 -40.42,48.88 0,8.34 4.6,15.36 15.92,15.36 5.11,0 11.72,-1.68 17.67,-4l0 8.2c-6.21,3 -13.49,5.14 -21.34,5.14 -21.75,0 -23.44,-18.97 -23.44,-22.95 0,-26.84 32.3,-59.34 53.34,-59.34 4.28,0 9.36,2.14 9.36,7.06 0,4.57 -2.34,9.51 -9.18,15.47 -0.83,0.78 -3.06,2.61 -5.28,4.25z"/>
   <path class="fil1" d="M76.49 178.2c-1.14,0.85 -2.31,1.66 -3.27,2.25l-1.43 0.79c-0.36,0.16 -1.13,0.5 -1.96,0.5 -3.24,0 -4.73,-2.56 -4.73,-4.03 0,-1 0.37,-1.78 1.19,-2.56 0.61,-0.58 1.57,-1.27 2.95,-2.25l2.96 -2.31c1.22,-0.99 2.6,-2.16 3.89,-3.42 2.77,-2.69 4.44,-5.1 4.44,-6.63l-0.67 -0.41c-12.07,0 -40.42,27.33 -40.42,48.88 0,8.34 4.6,15.36 15.92,15.36 6.04,0 14.19,-2.35 20.84,-5.33 1.13,1.94 3.02,3.52 5.36,4.5 -7.55,5.33 -18.05,10.17 -29.87,10.17 -21.74,0 -23.44,-18.97 -23.44,-22.95 0,-26.84 32.3,-59.34 53.34,-59.34 4.28,0 9.36,2.14 9.36,7.06 0,4.57 -2.34,9.51 -9.18,15.47 -0.83,0.78 -3.06,2.61 -5.28,4.25z"/>
   <path class="fil0" d="M272.78 187.38l-0.43 -1.68 -0.14 -0.65 -0.09 -0.61c0,-2.44 2.41,-3.76 3.69,-4.28 1.5,-0.6 3.24,-0.93 4.31,-0.93 1.68,0 3.19,0.56 3.98,1.87 0.33,0.55 0.46,1.12 0.51,1.52l0.04 0.95c0,13.13 -0.19,27.04 4.46,39.45 1.18,3.16 2.29,6.89 -2.52,5.34 -5.14,-1.65 -7.24,-8.26 -9.8,-20.29 -4.11,8.69 -15.69,18.24 -23.67,21.61 -6.95,2.93 -11.76,1.19 -11.87,-3.5 -0.32,-13.78 13.62,-35.64 31.53,-38.8zm-1.73 9.31c-7.41,1.35 -19.31,16.52 -19.21,24.45 6.56,-2.48 20.87,-17.85 21.17,-22.49 0.08,-1.24 -0.05,-2.3 -1.96,-1.96z"/>
   <path class="fil0" d="M312.29 158.23c-0.15,0.1 -0.53,0.38 -0.8,0.68 -0.55,0.6 -1.27,1.64 -2,3.32 -0.77,1.8 -1.54,4.33 -2.08,7.83 -2.45,15.51 -2.63,25.29 -0.69,45.54 4.76,34.21 14.08,33.29 10.12,36.68 -3.36,2.88 -14.16,-10.51 -18.66,-30.77 -3.23,-14.55 -6.18,-49.22 1.7,-64.06 1.63,-2.97 5.4,-9.39 13.77,-9.54 0.6,-0.01 1.98,0.07 3.3,0.56 1.37,0.51 3.2,1.69 3.24,4 0.06,3.33 -3.22,6.32 -5.78,6.37 -0.32,0 -0.79,-0.06 -1.28,-0.21l-0.71 -0.24 -0.13 -0.16z"/>
   <path class="fil0" d="M324.35 180.21c-18.88,5.79 -25.43,9.81 -34.84,14.95 -1.54,0.88 -4.9,3.02 -6.74,2.9 -2.65,-0.18 -4.16,-0.94 -4.97,-2.89 -0.39,-0.96 0.53,-3.05 2.3,-4.87 3.27,-3.37 22.22,-12.32 43.86,-13.5 3.71,-0.2 4.22,2.23 0.39,3.41z"/>
   <path class="fil0" d="M357.28 212.82c1.69,1.69 -8.73,17.17 -24.67,18.5 -17.41,1.45 -18.96,-11.12 -19.58,-16.25 -1.35,-11.26 6.8,-30.12 26.91,-31.53 3.81,-0.27 13.61,0.97 12.83,9.94 -0.64,7.32 -12.57,14.98 -27.57,21.43 -0.23,5.22 2.62,9.82 8.63,9.33 15.85,-1.29 19.23,-15.64 23.45,-11.42zm-26.3 -15.86c-1.7,2.54 -3.54,5.17 -4.19,8.17 6.64,-2.85 15.21,-7.62 15.68,-11.65 0.5,-4.28 -6.98,-3.28 -11.49,3.48zm19.15 -24.88c-6.03,3.75 -9.39,5.82 -11.38,6.95 -5.02,2.88 -6.09,0.6 -3.33,-2.89 2.99,-3.79 11.1,-11.43 14.34,-11.46 1.94,-0.02 4.49,0.97 4.68,3.1 0.08,0.82 -0.16,1.48 -1.03,2.19l-1.26 0.87 -2.02 1.24z"/>
   <path class="fil1" d="M116.32 176.36c0,-0.76 0,-5.19 0.22,-9.7 0.12,-2.28 0.29,-4.59 0.54,-6.45l0.48 -2.51c0.17,-0.65 0.43,-1.46 0.92,-2.04 1.68,-2.01 6.74,-3.18 8.77,-3.18 2.07,0 3.34,2.04 3.34,4.28 0,0.89 0.25,2.02 -0.15,3.65l-0.96 3.95c-1.54,7.49 -2.72,24.62 -2.72,30.6 0,8.85 -0.21,25.55 5.46,36.62 3.85,7.52 -9.02,6.26 -13.96,-20.9 -1.99,-10.97 -1.94,-24.61 -1.94,-34.32z"/>
   <path class="fil0" d="M359.4 186.83c-1.34,1.35 -2.01,2.98 -2.01,4.89 0,1.93 0.66,3.57 2,4.93 1.34,1.36 2.97,2.04 4.89,2.04 1.92,0 3.55,-0.68 4.9,-2.04 1.34,-1.36 2.01,-3 2.01,-4.93 0,-1.91 -0.67,-3.54 -2.01,-4.89 -1.35,-1.36 -2.98,-2.04 -4.9,-2.04 -1.9,0 -3.53,0.68 -4.88,2.04zm10.58 10.6c-1.57,1.57 -3.47,2.36 -5.7,2.36 -2.22,0 -4.12,-0.79 -5.68,-2.36 -1.55,-1.57 -2.33,-3.47 -2.33,-5.71 0,-2.21 0.78,-4.1 2.35,-5.67 1.56,-1.56 3.45,-2.34 5.66,-2.34 2.23,0 4.13,0.78 5.7,2.34 1.56,1.56 2.35,3.45 2.35,5.67 0,2.23 -0.79,4.13 -2.35,5.71zm-4.19 -8.75c-0.38,-0.22 -1.01,-0.33 -1.87,-0.33l-1.32 0 0 3.2 1.4 0c0.66,0 1.15,-0.07 1.48,-0.2 0.6,-0.24 0.9,-0.7 0.9,-1.38 0,-0.64 -0.19,-1.07 -0.59,-1.29zm-1.66 -1.39c1.09,0 1.9,0.11 2.41,0.32 0.91,0.38 1.37,1.12 1.37,2.23 0,0.79 -0.29,1.37 -0.87,1.74 -0.3,0.2 -0.73,0.34 -1.28,0.43 0.69,0.11 1.2,0.4 1.52,0.86 0.32,0.47 0.48,0.93 0.48,1.37l0 0.65c0,0.2 0.01,0.42 0.03,0.65 0.01,0.24 0.04,0.39 0.07,0.46l0.06 0.11 -1.46 0c-0.01,-0.03 -0.01,-0.06 -0.02,-0.08 -0.01,-0.03 -0.02,-0.07 -0.02,-0.1l-0.04 -0.29 0 -0.7c0,-1.02 -0.27,-1.69 -0.83,-2.02 -0.33,-0.19 -0.9,-0.29 -1.73,-0.29l-1.22 0 0 3.48 -1.56 0 0 -8.82 3.09 0z"/>
   <path class="fil1" d="M188.43 232.53c-6.75,0.21 -3.3,-31.31 -9.61,-41.28l-1.22 -1.71 -0.74 -1.2 -0.29 -0.63c-0.05,-0.16 -0.21,-0.67 -0.05,-1.2 0.88,-2.74 7.3,-3.36 9.16,-2.82 1.9,0.56 2.89,1.91 3.45,3.29 1.46,3.68 0.96,7.44 1.26,12.69 3.96,-5.24 8.76,-9.11 13.28,-11.34 2.21,-1.09 4.54,-1.85 6.42,-2.2 4.57,-0.84 4.92,2.44 0.92,4.43 -4.52,2.26 -18.14,12.54 -17.84,29.67 0.12,6.87 0.3,12.15 -4.74,12.3z"/>
   <path class="fil1" d="M142.96 207.66c-1.23,6.21 0.59,12.94 4.88,15.5 6.17,3.68 12.53,-2.62 14.79,-5.84 1.52,-2.17 3.19,-5.26 4.05,-10.06 0.61,-3.47 -0.14,-6.1 -1.18,-7.73 -2.64,-4.17 -6.68,-5.06 -9.99,-5.81 -0.46,-0.1 -0.82,-0.32 -1.05,-0.58 -0.27,-0.29 -0.33,-0.65 -0.16,-1 0.27,-0.54 1.07,-0.93 1.95,-1.19 1.86,-0.55 4.87,-0.73 7.82,0.16 3.31,0.99 7.7,2.46 11.51,8.57 3.75,6 2.49,12.09 1.12,16.18 -2.17,6.52 -7.45,11.55 -13.55,14.34 -7.5,3.43 -16.67,1.15 -22.37,-2.34 -5.28,-3.23 -8.59,-8.93 -9.16,-15.76 -0.65,-7.75 2.2,-15.72 5.55,-20.28 4.08,-5.57 13.95,-11.91 24.19,-8.6 2.73,0.89 2.49,3.73 -2.5,4.76 -7.8,1.61 -13.42,7.16 -15.9,19.68z"/>
   <path class="fil1" d="M78.79 207.66c-1.22,6.21 0.59,12.94 4.89,15.5 6.16,3.68 12.52,-2.62 14.78,-5.84 1.53,-2.17 3.2,-5.26 4.05,-10.06 0.62,-3.47 -0.14,-6.1 -1.17,-7.73 -2.64,-4.17 -6.68,-5.06 -10,-5.81 -0.46,-0.1 -0.82,-0.32 -1.05,-0.58 -0.27,-0.29 -0.33,-0.65 -0.16,-1 0.27,-0.54 1.07,-0.93 1.95,-1.19 1.87,-0.55 4.88,-0.73 7.83,0.16 3.31,0.99 7.69,2.46 11.5,8.57 3.75,6 2.49,12.09 1.13,16.18 -2.17,6.52 -7.45,11.55 -13.56,14.34 -7.5,3.43 -16.66,1.15 -22.37,-2.34 -5.27,-3.23 -8.59,-8.93 -9.16,-15.76 -0.65,-7.75 2.2,-15.72 5.55,-20.28 4.09,-5.57 13.95,-11.91 24.19,-8.6 2.73,0.89 2.49,3.73 -2.5,4.76 -7.79,1.61 -13.42,7.16 -15.9,19.68z"/>
  </g>
  <rect class="fil2 str0" x="0.08" y="0.08" width="400.42" height="400.42"/>
 </g>
</svg>
