<?xml version="1.0" encoding="UTF-8"?>
<!DOCTYPE svg PUBLIC "-//W3C//DTD SVG 1.1//EN" "http://www.w3.org/Graphics/SVG/1.1/DTD/svg11.dtd">
<!-- Creator: CorelDRAW 2021 (64-Bit) -->
<svg xmlns="http://www.w3.org/2000/svg" xml:space="preserve" width="727px" height="727px" version="1.1" style="shape-rendering:geometricPrecision; text-rendering:geometricPrecision; image-rendering:optimizeQuality; fill-rule:evenodd; clip-rule:evenodd"
viewBox="0 0 36.37 36.37"
 xmlns:xlink="http://www.w3.org/1999/xlink"
 xmlns:xodm="http://www.corel.com/coreldraw/odm/2003">
 <defs>
  <style type="text/css">
   <![CDATA[
    .str0 {stroke:#FEFEFE;stroke-width:0.12;stroke-linecap:round;stroke-linejoin:round;stroke-miterlimit:22.9256}
    .fil1 {fill:#264BE1}
    .fil0 {fill:#2964F1}
    .fil3 {fill:#EAEAEB}
    .fil2 {fill:#FEFEFE}
   ]]>
  </style>
 </defs>
 <g id="Capa_x0020_1">
  <metadata id="CorelCorpID_0Corel-Layer"/>
  <rect class="fil0 str0" x="0.06" y="0.06" width="36.25" height="36.25"/>
  <g id="_2194398025680">
   <path class="fil1" d="M18.14 27.74l-6.97 -1.94 -0.47 -5.35 3.43 0 0.23 2.7 3.81 1.04 0 0 -0.01 -5.45 -7.62 -0.01 -0.3 -3.4 7.93 0 4.49 0 -4.48 0 0 -3.5 4.79 0 -4.8 0.01 -8.24 -0.02 -0.3 -3.4 8.54 0 0.01 0 0 -3.41 11.13 0 -2.11 23.75 -9.02 2.52 -0.04 -3.54zm0.03 5.9c0.13,0 1.17,-0.31 1.39,-0.38l4.18 -1.15c0.93,-0.27 1.87,-0.51 2.79,-0.78 0.41,-0.12 2.64,-0.7 2.79,-0.78l2.49 -27.83 -27.25 0c0,0.3 0.18,2.17 0.22,2.55 0.09,0.86 0.14,1.73 0.23,2.57 0.16,1.7 0.32,3.42 0.45,5.11 0.27,3.41 0.65,6.82 0.91,10.22 0.14,1.7 0.36,3.43 0.46,5.11l0.17 1.9c0.03,0.35 -0.06,0.36 0.26,0.44 0.72,0.18 1.48,0.41 2.19,0.61 1.45,0.42 2.9,0.79 4.35,1.21 0.46,0.13 4.24,1.2 4.37,1.2z"/>
   <polygon class="fil0" points="18.18,8.42 26.71,8.42 25.16,25.8 18.17,27.74 18.14,27.74 18.18,31.28 27.2,28.76 29.31,5.01 18.18,5.01 "/>
   <polygon class="fil2" points="18.17,11.84 22.97,11.83 22.66,15.33 18.17,15.33 18.16,18.74 22.36,18.74 21.97,23.16 18.17,24.19 18.17,24.19 18.17,27.74 25.16,25.8 26.71,8.42 18.18,8.42 18.17,8.42 "/>
   <polygon class="fil3" points="18.14,27.74 18.17,27.74 18.17,24.19 14.36,23.15 14.13,20.45 10.7,20.45 11.17,25.8 "/>
   <polygon class="fil3" points="18.17,11.84 18.17,8.42 9.63,8.42 9.93,11.82 "/>
   <polygon class="fil3" points="18.16,18.74 18.17,15.33 10.24,15.33 10.54,18.73 "/>
   <polygon class="fil0" points="18.17,24.19 21.97,23.16 22.36,18.74 18.16,18.74 "/>
   <polygon class="fil0" points="22.66,15.33 22.97,11.83 18.18,11.83 18.18,15.33 "/>
  </g>
 </g>
</svg>
