<?xml version="1.0" encoding="UTF-8"?>
<!DOCTYPE svg PUBLIC "-//W3C//DTD SVG 1.1//EN" "http://www.w3.org/Graphics/SVG/1.1/DTD/svg11.dtd">
<!-- Creator: CorelDRAW 2021 (64-Bit) -->
<svg xmlns="http://www.w3.org/2000/svg" xml:space="preserve" width="708px" height="708px" version="1.1" style="shape-rendering:geometricPrecision; text-rendering:geometricPrecision; image-rendering:optimizeQuality; fill-rule:evenodd; clip-rule:evenodd"
viewBox="0 0 31.34 31.34"
 xmlns:xlink="http://www.w3.org/1999/xlink"
 xmlns:xodm="http://www.corel.com/coreldraw/odm/2003">
 <defs>
  <style type="text/css">
   <![CDATA[
    .str0 {stroke:#FEFEFE;stroke-width:0.1;stroke-linecap:round;stroke-linejoin:round;stroke-miterlimit:22.9256}
    .fil2 {fill:#016AB6}
    .fil1 {fill:#E41821}
    .fil0 {fill:white}
   ]]>
  </style>
 </defs>
 <g id="Capa_x0020_1">
  <metadata id="CorelCorpID_0Corel-Layer"/>
  <g id="_2194391192528">
   <rect class="fil0 str0" x="0.05" y="0.05" width="31.23" height="31.23"/>
   <g>
    <path class="fil1" d="M12.73 26.59c-0.12,0.28 -0.5,0.47 -0.82,0.49 -0.4,0.03 -0.66,-0.15 -0.71,-0.5 -0.12,-0.87 0.81,-0.88 1.53,-0.88l0 0.89zm-2.08 -2.31c1.32,-0.25 2.08,-0.66 2.08,0.88 -0.6,0 -1.21,0.02 -1.71,0.27 -0.95,0.49 -1.03,2.12 0.3,2.29 0.91,0.12 1.18,-0.34 1.53,-0.46l0.12 0.39 0.63 0.01c0.01,-0.73 0.14,-3.16 -0.15,-3.66 -0.56,-0.99 -1.99,-0.49 -2.92,-0.29l0.12 0.57z"/>
    <path class="fil1" d="M20.46 25.73c0.07,0.25 0.15,0.88 -0.21,1.12 -1.47,1 -2.1,-1.46 0.21,-1.12zm-2.06 -1.45c1.25,-0.23 2.09,-0.66 2.09,0.84 -0.57,0.15 -0.96,-0.04 -1.63,0.27 -1.09,0.49 -1.07,2.13 0.15,2.32 0.94,0.15 1.25,-0.33 1.59,-0.45l0.12 0.4 0.63 -0.04c0.05,-0.9 0.02,-1.97 0.01,-2.88 -0.02,-1.89 -2.42,-1.35 -3.07,-0.98l0.11 0.52z"/>
    <path class="fil1" d="M15.01 12.61c-0.33,-0.85 -1.13,-1.43 -1.39,-2.43 -0.4,-1.57 1.31,-2.5 2.26,-3.47 0.5,-0.52 0.4,-0.32 0.88,-1.05 0.54,-0.82 0.84,-2.27 0.06,-2.94 0.17,1.26 0.03,2.03 -0.97,3.03 -1.43,1.44 -4.21,2.55 -2.86,4.72 0.3,0.48 0.61,0.76 0.92,1.13 0.11,0.13 0.89,0.89 1.1,1.01z"/>
    <path class="fil1" d="M15.04 23.48l-0.95 0.01 1.27 4.16 1.09 0.01c0.48,-1.16 1.12,-2.78 1.26,-4.18l-0.89 0c-0.18,0.92 -0.43,2.47 -0.81,3.22l-0.97 -3.22z"/>
    <path class="fil2" d="M8.33 19.26c1.4,0.94 7.81,0.81 10.23,0.33 0.66,-0.12 2.98,-0.62 2.1,-1.34l-0.03 0.11c-0.09,0.41 -0.29,0.46 -0.78,0.6 -0.43,0.13 -0.91,0.2 -1.39,0.26 -2.02,0.28 -7.58,0.54 -8.99,-0.37 0.13,-0.48 1.21,-0.68 1.66,-0.69 -0.27,-0.37 -1.35,0.01 -1.69,0.13 -0.53,0.18 -1.13,0.37 -1.11,0.97z"/>
    <path class="fil1" d="M8.33 29.16c0.5,-0.26 0.93,-0.44 1.18,-0.99 0.36,-0.76 0.21,-5.15 0.21,-6.15l-0.92 -0.01c0,0.82 0.06,4.97 -0.05,5.6 -0.11,0.58 -0.44,0.72 -0.81,1.04 0.08,0.24 0.08,0.14 0.39,0.51z"/>
    <path class="fil1" d="M15.69 13.22c0.51,-0.2 1.31,-0.92 1.38,-1.61 0.08,-0.87 -0.71,-1.3 -0.94,-2.02 -0.34,-1.08 1.13,-2.06 1.89,-2.53 0.32,-0.2 0.69,-0.39 0.93,-0.62 -0.69,0.13 -1.67,0.58 -2.19,0.88 -1.59,0.92 -2.32,2.2 -1.16,3.79 0.79,1.06 0.75,1.02 0.09,2.11z"/>
    <path class="fil2" d="M17.8 17.58c-0.24,-0.17 -0.81,-0.48 -1.1,-0.46 -0.96,0.06 -2.87,0.56 -4.26,-0.07l0.12 -0.31c-0.62,0.17 -1.24,0.53 -0.47,1 0.46,0.27 1.22,0.41 1.81,0.46 1,0.08 2.13,-0.01 3.1,-0.29l0.69 -0.24c0.14,-0.09 0.07,-0.04 0.11,-0.09z"/>
    <path class="fil2" d="M13.37 14.28c1.79,0 3.91,-0.04 5.43,-0.91 -0.62,0 -1.62,0.22 -2.32,0.29 -1.4,0.13 -3.15,0.24 -4.58,0.09 -0.42,-0.04 -0.61,-0.04 -0.79,-0.34 0.2,-0.2 0.45,-0.31 0.78,-0.42l0.91 -0.32c-2.38,0.08 -5.6,1.61 0.57,1.61z"/>
    <path class="fil2" d="M18.12 15.66c-0.02,-0.02 -0.55,-0.37 -0.58,-0.39 -0.21,-0.11 -1.82,0.21 -2.58,0.24 -0.49,0.02 -3.91,0.12 -2.82,-0.74 -1,0.12 -1.96,1.27 1.56,1.43 0.95,0.04 3.74,-0.13 4.42,-0.54z"/>
    <path class="fil2" d="M10.78 20.35c1.88,0.71 6.69,0.59 8.88,0.08 0.85,-0.2 1.83,-0.48 2.01,-1.25 -0.35,0.22 -0.52,0.36 -1.05,0.55 -0.4,0.14 -0.83,0.26 -1.24,0.35 -0.88,0.19 -1.8,0.31 -2.73,0.38 -1.04,0.08 -2.04,0.09 -3.08,0.08 -0.47,-0.01 -2.64,-0.24 -2.79,-0.19z"/>
    <path class="fil2" d="M20.15 12.96c0.13,0.09 -0.04,0.04 0.15,0.06 0.34,0.03 0.64,-0.24 1.2,0.29 0.35,0.34 0.43,0.78 0.17,1.3 -0.45,0.88 -1.6,1.34 -1.94,1.68 2.34,-0.33 3.73,-2.44 2.25,-3.32 -0.65,-0.38 -1.24,-0.24 -1.83,-0.01z"/>
    <path class="fil0" d="M20.46 25.73c-2.31,-0.34 -1.68,2.12 -0.21,1.12 0.36,-0.24 0.28,-0.87 0.21,-1.12z"/>
    <path class="fil0" d="M12.73 26.59l0 -0.89c-0.72,0 -1.65,0.01 -1.53,0.88 0.05,0.35 0.31,0.53 0.71,0.5 0.32,-0.02 0.7,-0.21 0.82,-0.49z"/>
   </g>
  </g>
 </g>
</svg>
