<?xml version="1.0" encoding="UTF-8"?>
<!DOCTYPE svg PUBLIC "-//W3C//DTD SVG 1.1//EN" "http://www.w3.org/Graphics/SVG/1.1/DTD/svg11.dtd">
<!-- Creator: CorelDRAW 2021 (64-Bit) -->
<svg xmlns="http://www.w3.org/2000/svg" xml:space="preserve" width="4756px" height="4756px" version="1.1" style="shape-rendering:geometricPrecision; text-rendering:geometricPrecision; image-rendering:optimizeQuality; fill-rule:evenodd; clip-rule:evenodd"
viewBox="0 0 1401.35 1401.35"
 xmlns:xlink="http://www.w3.org/1999/xlink"
 xmlns:xodm="http://www.corel.com/coreldraw/odm/2003">
 <defs>
  <style type="text/css">
   <![CDATA[
    .str0 {stroke:#FEFEFE;stroke-width:0.7;stroke-linecap:round;stroke-linejoin:round;stroke-miterlimit:22.9256}
    .fil2 {fill:#E6E6E6}
    .fil1 {fill:#F0C724}
    .fil0 {fill:#FBDE34}
    .fil3 {fill:white}
   ]]>
  </style>
 </defs>
 <g id="Capa_x0020_1">
  <metadata id="CorelCorpID_0Corel-Layer"/>
  <rect class="fil0 str0" x="0.35" y="0.35" width="1400.65" height="1400.65"/>
  <g id="_2194387777152">
   <path class="fil1" d="M697.35 1059.86l-263.03 -74.12 -16.75 -201.57 128.85 0.86c0.45,17.83 5.92,89.94 9.76,102.44l144.12 38.17c-2.31,-14.92 0.03,-161.09 -0.77,-193.05 -0.33,-13.38 -1.89,-9.05 4.93,-9.32 -11.35,0 -1.96,0.67 -5.88,-3.38l-0.48 -0.42c-46.81,0.78 -94.15,0.1 -141.02,0.12 -26.24,0.01 -122.36,3.41 -140.64,-1.08 2.62,-7.4 34.62,-383.4 39.09,-425.29 5.69,-53.38 -5.31,-42.68 52.43,-42.68 64.12,0 128.48,-0.53 192.57,0.05 -1.73,-9.95 -1.86,-41.24 0,-50.01l420.51 0 -10.12 113.7c-0.8,9.35 -1.05,12.56 -2.39,28.07l-47.49 531.7c-1.66,23.07 -3.16,33.89 -4.96,55.42 -1.42,16.98 -4,44.56 -5.06,56.83 -2.2,25.44 -3.14,34.77 -5.25,58.19l-5.29 56.07c-11.2,0.93 -239.31,65.03 -256.3,69.89 -14.22,4.06 -75.58,22.46 -85.61,22.46 2.13,-5.17 0.96,-96.79 0.97,-116.42 0,-6.84 1.23,-11.34 -2.19,-16.63zm-476.8 -542.92l-0.34 12.45c2.75,3.53 0.08,-2.13 1.67,3.86l3.12 32.83 2.15 30.03 3.19 30.87c3.48,38.01 7.43,77.02 10.31,115.92 1.38,18.58 4.11,38 5.34,57.03 0.98,15.01 5.95,46.39 3.7,59.58 4.01,5.16 3.91,24.81 4.26,32.75l2.52 27.99 3.34 36.85c3.49,35.46 7.62,74.2 9.97,110.1l7.27 82.74c1.66,21.42 1.91,17.48 8.87,19.92l60.35 16.97 29.55 8.05 323 90.39 2.36 0c4.55,-3.25 105.22,-31.38 117.5,-33.47l29.88 -7.8c5.4,-3.77 50.89,-14.86 60.25,-17.16l116.6 -31.96 95.23 -28.02c5.79,-16.71 9.78,-90.52 11.81,-113.84l11.07 -107.05c-1.39,-8.67 -0.34,-18.94 0.98,-26.66 0.21,-7.64 1.31,-14.81 1.7,-20.13 0.51,-6.9 0.19,-16.13 3.21,-20.02l-0.33 -10.48c1.77,-39.64 6.83,-83.98 10.98,-125.93l10.69 -119.47c0.12,-0.54 0.3,-1.12 0.43,-1.59l1.15 -2.68c0.08,-0.66 0.38,-0.84 0.66,-1.2l-0.33 -14.41 3.37 -36.86 2.55 -27.98c0.59,-8.28 0.79,-9.95 1.33,-17.66 0.19,-2.76 0.33,-7.31 0.69,-9.86 0.39,-2.76 0.49,-2.65 1.07,-4.74 0.08,-0.3 0.48,-0.6 0.55,-1.27 0.06,-0.64 0.32,-0.84 0.6,-1.19 -1.96,-13.2 2.68,-43.89 3.86,-57.31 1.66,-18.87 4.04,-38.78 5.32,-57.29 2.55,-37.03 5.38,-79.91 10.16,-115.96l3.19 -30.87 2.15 -30.04 7.86 -88.42 0.98 -7.86 -14.73 0 -29.01 0.03 -29.94 -0.03 -29.01 0.03 -29.94 -0.03 -29.01 0.03 -29.94 -0.03 -29.01 0.03 -29.94 -0.03 -29.01 0.03 -29.94 -0.03 -29.01 0.03 -29.94 -0.03 -29.01 0.03 -29.94 -0.03 -29.01 0.03 -29.94 -0.03 -29.01 0.03 -29.94 -0.03 -29.01 0.03 -29.94 -0.03 -29.01 0.03 -29.94 -0.03 -29.01 0.03 -29.95 -0.03 -29 0.03 -29.95 -0.03 -29 0.03 -29.95 -0.03 -29 0.03 -29.95 -0.03 -29 0.03 -29.95 -0.03 -29 0.03 -29.95 -0.03 -14.44 -0.01 35.54 400.86z"/>
   <path class="fil0" d="M700.53 250.59c66,2.64 170.24,0.23 243.66,0.22 12.55,-0.01 28.69,-2.58 30.78,2.82l23.87 272.94 -129.16 0 -11.95 -133.41c-48.98,-1.63 -102.82,-8.12 -155.7,-7.83l-1.5 0c-2.43,11.39 -0.99,158.02 -0.99,180.25 -0.01,25.51 -2.44,21.26 2.96,22.12 -11.43,0 -2.09,-0.7 -5.15,3.35l301.6 -0.34 -35.08 395.96 -266.52 73.19c3.42,5.29 2.19,9.79 2.19,16.63 -0.01,19.63 1.16,111.25 -0.97,116.42 10.03,0 71.39,-18.4 85.61,-22.46 16.99,-4.86 245.1,-68.96 256.3,-69.89l5.29 -56.07c2.11,-23.42 3.05,-32.75 5.25,-58.19 1.06,-12.27 3.64,-39.85 5.06,-56.83 1.8,-21.53 3.3,-32.35 4.96,-55.42l47.49 -531.7c1.34,-15.51 1.59,-18.72 2.39,-28.07l10.12 -113.7 -420.51 0c-1.86,8.77 -1.73,40.06 0,50.01z"/>
   <path class="fil2" d="M698.1 719.47c1.51,-25.33 3.18,-106.43 -0.75,-128.42 -25.56,-3.23 -124.34,4.11 -139.3,-1.42l18.69 -201.14 123.79 -3.16 1.5 0c0,-22.94 0,-45.88 0,-68.81 0,-11.53 2.88,-57.75 -1.97,-62.94l274.91 0.05c-2.09,-5.4 -18.23,-2.83 -30.78,-2.82 -73.42,0.01 -177.66,2.42 -243.66,-0.22 -64.09,-0.58 -128.45,-0.05 -192.57,-0.05 -57.74,0 -46.74,-10.7 -52.43,42.68 -4.47,41.89 -36.47,417.89 -39.09,425.29 18.28,4.49 114.4,1.09 140.64,1.08 46.87,-0.02 94.21,0.66 141.02,-0.12z"/>
   <path class="fil3" d="M698.1 719.47l0.48 0.42 159.37 -0.52 -14.86 166.11c-8.24,5.28 -57.48,17.06 -71.74,20.77 -22.64,5.9 -48.96,12.29 -71.05,19.39 -7.63,14.28 2.14,107 -2.95,134.22l266.52 -73.19 35.08 -395.96 -301.6 0.34c3.93,21.99 2.26,103.09 0.75,128.42z"/>
   <path class="fil3" d="M702.03 385.33c52.88,-0.29 106.72,6.2 155.7,7.83l11.95 133.41 129.16 0 -23.87 -272.94 -274.91 -0.05c4.85,5.19 1.97,51.41 1.97,62.94 0,22.93 0,45.87 0,68.81z"/>
   <path class="fil2" d="M697.35 1059.86c5.09,-27.22 -4.68,-119.94 2.95,-134.22l-144.12 -38.17c-3.84,-12.5 -9.31,-84.61 -9.76,-102.44l-128.85 -0.86 16.75 201.57 263.03 74.12z"/>
   <path class="fil0" d="M700.3 925.64c22.09,-7.1 48.41,-13.49 71.05,-19.39 14.26,-3.71 63.5,-15.49 71.74,-20.77l14.86 -166.11 -159.37 0.52c3.92,4.05 -5.47,3.38 5.88,3.38 -6.82,0.27 -5.26,-4.06 -4.93,9.32 0.8,31.96 -1.54,178.13 0.77,193.05z"/>
   <path class="fil1" d="M697.35 591.05c3.06,-4.05 -6.28,-3.35 5.15,-3.35 -5.4,-0.86 -2.97,3.39 -2.96,-22.12 0,-22.23 -1.44,-168.86 0.99,-180.25l-123.79 3.16 -18.69 201.14c14.96,5.53 113.74,-1.81 139.3,1.42z"/>
  </g>
 </g>
</svg>
