<?xml version="1.0" encoding="UTF-8"?>
<!DOCTYPE svg PUBLIC "-//W3C//DTD SVG 1.1//EN" "http://www.w3.org/Graphics/SVG/1.1/DTD/svg11.dtd">
<!-- Creator: CorelDRAW 2021 (64-Bit) -->
<svg xmlns="http://www.w3.org/2000/svg" xml:space="preserve" width="4756px" height="4756px" version="1.1" style="shape-rendering:geometricPrecision; text-rendering:geometricPrecision; image-rendering:optimizeQuality; fill-rule:evenodd; clip-rule:evenodd"
viewBox="0 0 4482.17 4482.17"
 xmlns:xlink="http://www.w3.org/1999/xlink"
 xmlns:xodm="http://www.corel.com/coreldraw/odm/2003">
 <defs>
  <style type="text/css">
   <![CDATA[
    .str0 {stroke:#FEFEFE;stroke-width:2.23;stroke-linecap:round;stroke-linejoin:round;stroke-miterlimit:22.9256}
    .fil0 {fill:#222222}
    .fil1 {fill:#529D42}
   ]]>
  </style>
 </defs>
 <g id="Capa_x0020_1">
  <metadata id="CorelCorpID_0Corel-Layer"/>
  <rect class="fil0 str0" x="1.11" y="1.11" width="4479.95" height="4479.95"/>
  <g id="_2194429151456">
   <path class="fil1" d="M2191 488.15c-63.91,10.55 -106.51,41.85 -153.65,68.76l-419.62 242.99c-45.5,27.72 -92.66,54.79 -139.74,81.12l-419.75 243.05c-47.1,26.96 -93.64,53.23 -139.88,80.97 -41.58,24.94 -105.47,56.27 -137.52,83.56 -105.58,89.93 -99.46,174.9 -99.46,343.4l0 1325.49c-0.03,72.99 8.76,125.94 43.5,178.39 18.03,27.21 30.34,38.25 51.51,59.14 26.68,26.31 295.35,173 347.91,204.38 95,56.72 210.26,103.38 343.66,98.68 145.03,-5.11 240.53,-60.47 297.89,-144.61 72.65,-106.56 68.67,-226.19 68.67,-371.44l0.02 -1325.52c0.44,-87.98 -26.2,-69.96 -149.8,-69.98 -103.83,-0.01 -92.8,-4.17 -92.8,127.29l0 1325.49c0,84.31 -2.1,124.52 -49.91,172.26 -98.96,98.81 -231.76,27.36 -320.84,-23.83 -47.51,-27.3 -91.85,-53.45 -139.98,-80.99 -46.22,-26.45 -92.12,-54.93 -140.01,-80.73 -36.92,-19.89 -30.3,-36.1 -30.19,-80.81l0.01 -994.11c0,-146.66 -2.63,-295.67 -0.14,-442.03 0.91,-53.68 39.12,-58.86 117.25,-103.99l1191.26 -686.89c29.86,-12.82 61.5,14.16 82.8,26.48 92.77,53.66 187.42,108.01 280.38,161.43l700.53 403.98c36.09,21.07 266.35,147.75 275.95,165.61 11.76,21.87 5.46,607.38 5.46,659.51l0 662.74c0,37.9 8.08,194.07 -8.96,214.04l-278.21 163.44c-178.26,103.11 -386.93,219.27 -559.75,323.85l-419.9 242.91c-21.88,12.51 -48.26,35.27 -76.29,24.53 -24.8,-9.5 -326.94,-202.56 -348.76,-203.96 -15.76,-1.01 -58.79,26.54 -74.86,35.41 -119.75,66.06 -227.34,49.38 -110,117.25 94.94,54.92 183.15,109.79 277.35,164.54 47.09,27.37 91.79,54.87 138.88,82.03 51.36,29.61 116.96,42.94 184.82,33.27 65.55,-9.33 108.77,-37.04 156.16,-64.72l279.59 -162.22c139.08,-78.89 282.09,-166.5 419.67,-243.06l419.74 -243.18c36.99,-21.2 109.54,-58.4 137.71,-83.05 105.45,-92.3 99.09,-173.08 99.09,-343.81l0 -1325.48c0.23,-144.64 -44.63,-211.91 -161.57,-281.3 -92.65,-54.97 -185.8,-108.67 -279.96,-161.89 -280.06,-158.26 -560.56,-327.04 -839.75,-485.84 -117.06,-66.59 -192.5,-134.98 -328.51,-112.55z"/>
   <path class="fil1" d="M2489.23 1545.92c-209.31,20.71 -363.87,89.61 -441.19,224.43 -77.25,134.7 -70.61,370.54 101.27,473.04 154.65,92.21 346.08,96.11 540.65,122.11 90.27,12.06 193,27.19 267.87,63.6 111.76,54.35 70.12,185.25 31.95,225.62 -27.61,29.22 -52.3,46.32 -101.66,62.1 -42.54,13.6 -93.37,21.39 -141.89,24.83 -158.97,11.28 -437.39,19.59 -515.94,-141.4 -73.83,-151.32 41.59,-141.91 -189.63,-141.91 -76.63,0 -89.11,-0.89 -82.43,81.96 29.87,370.48 404.17,447.67 732.9,434.04 138.27,-5.73 280.12,-29.38 396.85,-98.55 112.51,-66.67 181.47,-171.69 194.07,-304.72 42.88,-452.94 -471.24,-409.77 -836.9,-484.64 -102.6,-21.01 -192.04,-36.42 -187.42,-143.6 1.52,-35.26 12.8,-70.18 36.67,-93.95l6.19 -5.99c32.56,-32.03 78.95,-47.77 129.56,-58.16 89.2,-18.32 218.8,-17.76 309.44,-4.92 104.27,14.78 171.12,49.38 213.23,118.2 84.77,138.59 -30.24,137.54 192.41,137.68 68.1,0.04 94.63,3.83 83.82,-75.02 -18.87,-137.67 -70.83,-241.97 -182.32,-316.16 -136.8,-91.03 -364.96,-117.65 -557.5,-98.59z"/>
  </g>
 </g>
</svg>
