<?xml version="1.0" encoding="UTF-8"?>
<!DOCTYPE svg PUBLIC "-//W3C//DTD SVG 1.1//EN" "http://www.w3.org/Graphics/SVG/1.1/DTD/svg11.dtd">
<!-- Creator: CorelDRAW -->
<svg xmlns="http://www.w3.org/2000/svg" xml:space="preserve" width="53.6971mm" height="53.697mm" version="1.1" style="shape-rendering:geometricPrecision; text-rendering:geometricPrecision; image-rendering:optimizeQuality; fill-rule:evenodd; clip-rule:evenodd"
viewBox="0 0 261.92 261.92"
 xmlns:xlink="http://www.w3.org/1999/xlink"
 xmlns:xodm="http://www.corel.com/coreldraw/odm/2003">
 <defs>
  <style type="text/css">
   <![CDATA[
    .fil2 {fill:#FEFEFE}
    .fil1 {fill:#FACACB}
    .fil3 {fill:#F7ADAD}
    .fil4 {fill:#F5999C}
    .fil0 {fill:#E33439}
   ]]>
  </style>
 </defs>
 <g id="Layer_x0020_1">
  <metadata id="CorelCorpID_0Corel-Layer"/>
  <path class="fil0" d="M-0 25.99l0 209.95c0,8.15 3.4,15.2 9.73,20.35 3.17,2.58 5.14,3.39 8.89,4.54 0.82,0.25 1.74,0.61 2.77,0.74 2.1,0.26 4.06,0.36 6.25,0.36l206.59 0c6.79,-0.01 12.36,-1.15 17.81,-5.51 2.71,-2.17 2.72,-2.17 5.01,-5.21 0.86,-1.14 1.97,-2.96 2.51,-4.21l1.71 -5c0.43,-1.58 0.66,-4.14 0.66,-6.06l0 -209.95c0,-1.9 -0.22,-4.28 -0.6,-5.82 -2.13,-8.61 -8.68,-16.53 -16.81,-18.81 -0.47,-0.13 -0.71,-0.14 -1.19,-0.27 -2.86,-0.76 -3.63,-1.08 -7.39,-1.08l-209.95 0c-4.01,0 -7.14,0.74 -10.64,2.21 -9.29,3.89 -15.35,13.47 -15.35,23.78z"/>
  <path class="fil1" d="M214.78 115.78c2.3,0.2 12.31,-0.49 13.4,0.29 1.17,1.16 -0.58,38.2 0.51,41.49 1.65,0.07 13,0.4 13.63,-0.24 0.41,-0.42 0.62,-54.73 -0.01,-55.36 -0.66,-0.66 -56.66,-0.27 -62.44,-0.27 -6.48,0 -14.65,-0.44 -20.92,0.06 -0.46,1.52 -0.48,54.12 -0.01,55.78l27.76 0.05 0.14 -41.69 13.69 -0.07c0.35,7.16 -0.5,38.81 0.21,41.68l13.77 0.08c0.93,-3.47 -0.41,-34.08 0.27,-41.81z"/>
  <path class="fil2" d="M144.82 157.1l0 -54.9 -55.33 -0.11 -0.13 69.08 27.37 0.05 0.06 -13.73c2.47,-0.98 23.24,0.1 28.03,-0.4z"/>
  <path class="fil2" d="M214.78 115.78c0.26,-0.38 -0.72,-0.27 0.71,-0.36 1.77,-0.05 12.23,-0.44 13.01,0.36 0.73,0.73 0.33,37.43 0.35,41.39l13.36 0.03 0.01 -55.12 -83.03 -0.02 -0.01 55.08 27.24 0.06c0.01,-4.81 -0.29,-39.99 0.16,-41.53 1.65,-0.68 12.49,-0.65 14.31,-0.06 0.97,4.15 -0.37,37.88 0.3,41.52l13.03 0.06 0.01 -40.68c0.28,-1.62 0.01,-0.4 0.56,-0.73z"/>
  <path class="fil1" d="M61.24 157.21c1.62,0.43 12.11,0.48 13.73,0.06 0.69,-1.71 0.27,-34.79 0.27,-41.35 0,-2.88 0.36,-11.77 -0.19,-13.95 -1.86,-0.41 -53.22,-0.45 -55.56,-0.02 -0.68,2.08 -0.18,54.89 0.1,55.37 0.57,0.58 25.09,0.4 27.61,0.22 0.67,-2.24 -0.03,-35.23 0.25,-41.52 1.33,-0.41 11.99,-0.36 13.57,-0.06l0.21 41.24z"/>
  <path class="fil2" d="M19.69 157.16l27.29 0.03 0 -31.34c0,-12.43 -1.8,-10.43 7.32,-10.43 9.28,0 7.23,-3.98 7.23,20.65 0,6.99 -0.11,14.07 0.01,21.05l13.34 0.07 0.01 -55.14 -55.21 -0.01 -0.01 55.12z"/>
  <path class="fil0" d="M130.99 143.29l0.01 -27.29c-1.9,-0.17 -12.4,-0.32 -13.67,0.1l-0.05 27.09c1.31,0.42 11.79,0.27 13.7,0.1z"/>
  <path class="fil3" d="M144.82 157.1c-4.79,0.5 -25.56,-0.59 -28.03,0.4l-0.06 13.73 -27.37 -0.05 0.13 -69.08 55.33 0.11c-0.4,-0.85 -0.06,-0.49 -1.43,-0.59l-26.3 0.04c-4.42,0 -25.4,-0.26 -27.92,0.11 -0.45,1.39 -0.62,64.86 -0.14,69.69 1.8,0.41 26.19,0.42 28.09,0.01l0.1 -13.66c1.61,-0.38 19.94,-0.18 24.4,-0.15l2.58 -0.1c0.93,-0.36 -0.02,0.44 0.62,-0.45z"/>
  <path class="fil4" d="M130.99 143.29c-1.91,0.16 -12.4,0.32 -13.7,-0.1l0.05 -27.09c1.27,-0.42 11.76,-0.27 13.67,-0.1 -0.62,-0.59 0.93,-0.46 -1.06,-0.52 -2.49,0.01 -11.28,-0.36 -13.01,0.27l-0.1 27.79c1.53,0.5 9.53,0.26 12.23,0.27 2.25,0.01 1.55,-0.18 1.92,-0.52z"/>
  <path class="fil4" d="M61.24 157.21c0.53,0.54 -0.74,0.4 0.95,0.48l13.02 -0.02c0.47,-1.7 0.46,-54.39 0,-55.92 -2.39,-0.49 -44.52,-0.13 -52.44,-0.15 -0.56,-0 -1.23,-0.04 -1.77,-0.02l-1.51 0.38c2.34,-0.43 53.7,-0.39 55.56,0.02 0.54,2.18 0.19,11.07 0.19,13.95 0,6.56 0.42,39.64 -0.27,41.35 -1.62,0.41 -12.11,0.37 -13.73,-0.06z"/>
 </g>
</svg>
