<?xml version="1.0" encoding="UTF-8"?>
<!DOCTYPE svg PUBLIC "-//W3C//DTD SVG 1.1//EN" "http://www.w3.org/Graphics/SVG/1.1/DTD/svg11.dtd">
<!-- Creator: CorelDRAW 2021 (64-Bit) -->
<svg xmlns="http://www.w3.org/2000/svg" xml:space="preserve" width="4756px" height="4756px" version="1.1" style="shape-rendering:geometricPrecision; text-rendering:geometricPrecision; image-rendering:optimizeQuality; fill-rule:evenodd; clip-rule:evenodd"
viewBox="0 0 4047.65 4047.65"
 xmlns:xlink="http://www.w3.org/1999/xlink"
 xmlns:xodm="http://www.corel.com/coreldraw/odm/2003">
 <defs>
  <style type="text/css">
   <![CDATA[
    .str0 {stroke:#FEFEFE;stroke-width:2.01;stroke-linecap:round;stroke-linejoin:round;stroke-miterlimit:22.9256}
    .fil0 {fill:#222222}
    .fil1 {fill:#62D9F9}
   ]]>
  </style>
 </defs>
 <g id="Capa_x0020_1">
  <metadata id="CorelCorpID_0Corel-Layer"/>
  <rect class="fil0 str0" x="1" y="1" width="4045.64" height="4045.64"/>
  <g id="_2194569395792">
   <path class="fil1" d="M2115.52 2811.5c7.43,-22.01 80.25,-114.02 98.77,-139.15l96.35 -144.65 352.59 -32.9c53.19,155.23 93.29,233.27 130.61,406.16 26.5,122.75 70.36,394.91 -86.39,399.55 -177.85,5.26 -504.76,-361.01 -591.93,-489.01zm-729.48 -317.03l351.75 33.89c20.64,47.8 159.09,222.25 196.24,277.78 -15.97,49.5 -397.82,499.96 -589.02,495.73 -265.84,-5.89 -7.82,-683.51 41.03,-807.4zm640.09 194.67l-58.71 -76.44c-18.66,-27.37 -35.72,-48.02 -51.58,-78.83l216.63 0.07c-5.14,19.11 -91.37,139.79 -106.34,155.2zm493.45 -503.45c12.89,8.67 7.42,4.62 15.53,20.09 2.97,5.66 7.01,14.3 10.61,21.91 7.56,15.96 11.56,25.72 20.43,43.94 11.26,23.13 32.37,62.58 37.72,88.73l-189.33 13.94 105.04 -188.61zm-1073.1 174.08c3.9,-24.09 67.5,-159.97 80.84,-175.53 6.93,7.24 107.01,180.44 110.47,192.18l-191.31 -16.65zm-145.21 -20.92c-98.64,4.04 -738.78,-119.15 -737.17,-315.81 1.56,-190.56 595.61,-310.04 736.62,-314.89l140.18 314.83c-0.25,9.11 -123.08,268.7 -139.63,315.87zm1448.94 -0.17c-20.68,-32.64 -53.4,-121.48 -70.43,-159.31 -108.33,-240.64 -93.5,-62.23 67.91,-470.23 97.85,-4.28 734.77,118.85 736.43,314.05 1.65,194.12 -627.23,318.03 -733.91,315.49zm-1057.32 -159.26c-95.82,-172.19 -93,-140.37 -53.48,-215.87l153.44 -265.01c12.7,-20.02 13.97,-35.31 40.37,-37.74 82.14,-7.57 314.88,0.12 402.07,2.86l123.65 208.7c86.54,152.66 94.66,138.17 48.63,215.62 -42.82,72.07 -79.5,140.03 -119.09,207.97 -23.19,39.83 -45.09,87.5 -74.54,90.08 -79.81,7.01 -310.82,1.18 -395.7,-0.91l-125.35 -205.7zm-56.72 -506.17c-6.66,17.81 -99.5,178.77 -108.85,187.93 -15.3,-21.11 -79.17,-152.16 -78.49,-173.78l187.34 -14.15zm777.09 -1.42l185.69 15.69c1.8,24.3 -24.61,67.8 -34.98,89.93 -11.81,25.22 -25.88,66.08 -43.68,83.68l-107.03 -189.3zm-498.59 -158.77c12.65,-24.31 94.12,-145.17 111.46,-154.93 20.04,22.42 98.06,130.01 108.27,156.6l-219.73 -1.67zm-528.58 40.76c-6.74,-30.96 -26.03,-71.29 -38.05,-102.25 -30.59,-78.79 -75.86,-228.43 -92.9,-308.96 -67.95,-321.23 -1.79,-521.12 285.73,-313.06l144.94 123.1c50.78,56.31 224.74,228.17 249.02,287.32 -25.41,42.31 -128.59,168.5 -178.85,250.18 -30.37,49.35 -36.56,30.21 -170.75,42.39 -66.24,6.02 -134.34,18.5 -199.14,21.28zm727.84 -318.76c119.57,-135.41 397.51,-498.12 592.7,-487.62 207.95,11.2 74.05,471.89 26.81,610.18 -21.78,63.77 -53.99,139.05 -71.18,196.59l-304.24 -29.43c-56.43,-3.95 -41.4,-1.19 -67.19,-39.96l-176.9 -249.76zm-864.91 342.27c-272.97,35.83 -829.49,198.39 -830.87,445.71 -0.83,149.26 204.53,260.43 327.13,309.93 78.36,31.65 157.95,58.93 241.07,80.23 36.16,9.27 247.7,53.53 260.38,60.39l-75.33 240.32c-22.42,81.59 -42.97,171.83 -54.45,261.9 -72.17,566.19 251.1,555.2 590.18,267.51 145.82,-123.71 166.46,-162.54 278.63,-279.06 16.83,-17.48 18.54,-31.67 40.37,-40.74 22.26,16.57 50.22,56.47 74.47,81.48l75.84 79.93c55.55,58.88 103.01,102.9 163.08,153.34 81.17,68.15 276.03,223.97 436.68,193.99 286.83,-53.53 124.44,-651.94 66.07,-836.33 -11.56,-36.54 -32.14,-87.78 -39.59,-122.34 24.01,-12.02 211,-47.61 257.68,-59.96 180.38,-47.76 570.39,-178.02 569.14,-390.59 -1.63,-277.88 -621.17,-402.27 -829.04,-446.52 9.79,-59.22 93.08,-235.39 129.38,-501.52 78.07,-572.38 -264.93,-552.37 -590.07,-266.97 -27.66,24.28 -55.9,48.27 -82.43,73.09l-193.91 203.01c-11.73,13.36 -24.84,30.92 -37.3,41.28l-150.64 -163.9c-50.07,-49.59 -108.79,-109.52 -163.86,-152.62 -83.99,-65.73 -266.74,-223.55 -435.57,-194.93 -255.63,43.32 -154.87,526.69 -103.81,718.97l76.77 244.4z"/>
   <path class="fil0" d="M1301.27 2338.85c16.55,-47.17 139.38,-306.76 139.63,-315.87l-140.18 -314.83c-141.01,4.85 -735.06,124.33 -736.62,314.89 -1.61,196.66 638.53,319.85 737.17,315.81z"/>
   <path class="fil0" d="M2750.21 2338.68c106.68,2.54 735.56,-121.37 733.91,-315.49 -1.66,-195.2 -638.58,-318.33 -736.43,-314.05 -161.41,408 -176.24,229.59 -67.91,470.23 17.03,37.83 49.75,126.67 70.43,159.31z"/>
   <path class="fil0" d="M1386.04 2494.47c-48.85,123.89 -306.87,801.51 -41.03,807.4 191.2,4.23 573.05,-446.23 589.02,-495.73 -37.15,-55.53 -175.6,-229.98 -196.24,-277.78l-351.75 -33.89z"/>
   <path class="fil0" d="M1386.09 1553.82c64.8,-2.78 132.9,-15.26 199.14,-21.28 134.19,-12.18 140.38,6.96 170.75,-42.39 50.26,-81.68 153.44,-207.87 178.85,-250.18 -24.28,-59.15 -198.24,-231.01 -249.02,-287.32l-144.94 -123.1c-287.52,-208.06 -353.68,-8.17 -285.73,313.06 17.04,80.53 62.31,230.17 92.9,308.96 12.02,30.96 31.31,71.29 38.05,102.25z"/>
   <path class="fil0" d="M2115.52 2811.5c87.17,128 414.08,494.27 591.93,489.01 156.75,-4.64 112.89,-276.8 86.39,-399.55 -37.32,-172.89 -77.42,-250.93 -130.61,-406.16l-352.59 32.9 -96.35 144.65c-18.52,25.13 -91.34,117.14 -98.77,139.15z"/>
   <path class="fil0" d="M2113.93 1235.06l176.9 249.76c25.79,38.77 10.76,36.01 67.19,39.96l304.24 29.43c17.19,-57.54 49.4,-132.82 71.18,-196.59 47.24,-138.29 181.14,-598.98 -26.81,-610.18 -195.19,-10.5 -473.13,352.21 -592.7,487.62z"/>
   <path class="fil0" d="M1980.53 1772.75c155.36,-27.79 273.73,83.76 295.21,208.54 26.63,154.71 -86.97,274.34 -210.93,294.81 -149.62,24.69 -272.01,-83.2 -292.97,-208.13 -25.83,-153.99 81.76,-272.51 208.69,-295.22zm-162.29 612.37c84.88,2.09 315.89,7.92 395.7,0.91 29.45,-2.58 51.35,-50.25 74.54,-90.08 39.59,-67.94 76.27,-135.9 119.09,-207.97 46.03,-77.45 37.91,-62.96 -48.63,-215.62l-123.65 -208.7c-87.19,-2.74 -319.93,-10.43 -402.07,-2.86 -26.4,2.43 -27.67,17.72 -40.37,37.74l-153.44 265.01c-39.52,75.5 -42.34,43.68 53.48,215.87l125.35 205.7z"/>
   <path class="fil1" d="M1980.53 1772.75c-126.93,22.71 -234.52,141.23 -208.69,295.22 20.96,124.93 143.35,232.82 292.97,208.13 123.96,-20.47 237.56,-140.1 210.93,-294.81 -21.48,-124.78 -139.85,-236.33 -295.21,-208.54z"/>
   <path class="fil0" d="M1446.48 2359.77l191.31 16.65c-3.46,-11.74 -103.54,-184.94 -110.47,-192.18 -13.34,15.56 -76.94,151.44 -80.84,175.53z"/>
   <path class="fil0" d="M1914.67 1513.06l219.73 1.67c-10.21,-26.59 -88.23,-134.18 -108.27,-156.6 -17.34,9.76 -98.81,130.62 -111.46,154.93z"/>
   <path class="fil0" d="M1448.83 1687.4c-0.68,21.62 63.19,152.67 78.49,173.78 9.35,-9.16 102.19,-170.12 108.85,-187.93l-187.34 14.15z"/>
   <path class="fil0" d="M2414.54 2374.3l189.33 -13.94c-5.35,-26.15 -26.46,-65.6 -37.72,-88.73 -8.87,-18.22 -12.87,-27.98 -20.43,-43.94 -3.6,-7.61 -7.64,-16.25 -10.61,-21.91 -8.11,-15.47 -2.64,-11.42 -15.53,-20.09l-105.04 188.61z"/>
   <path class="fil0" d="M2026.13 2689.14c14.97,-15.41 101.2,-136.09 106.34,-155.2l-216.63 -0.07c15.86,30.81 32.92,51.46 51.58,78.83l58.71 76.44z"/>
   <path class="fil0" d="M2520.29 1861.13c17.8,-17.6 31.87,-58.46 43.68,-83.68 10.37,-22.13 36.78,-65.63 34.98,-89.93l-185.69 -15.69 107.03 189.3z"/>
  </g>
 </g>
</svg>
