<?xml version="1.0" encoding="UTF-8"?>
<!DOCTYPE svg PUBLIC "-//W3C//DTD SVG 1.1//EN" "http://www.w3.org/Graphics/SVG/1.1/DTD/svg11.dtd">
<!-- Creator: CorelDRAW 2021 (64-Bit) -->
<svg xmlns="http://www.w3.org/2000/svg" xml:space="preserve" width="1126px" height="1126px" version="1.1" style="shape-rendering:geometricPrecision; text-rendering:geometricPrecision; image-rendering:optimizeQuality; fill-rule:evenodd; clip-rule:evenodd"
viewBox="0 0 79.32 79.32"
 xmlns:xlink="http://www.w3.org/1999/xlink"
 xmlns:xodm="http://www.corel.com/coreldraw/odm/2003">
 <defs>
  <style type="text/css">
   <![CDATA[
    .str0 {stroke:#FEFEFE;stroke-width:0.17;stroke-linecap:round;stroke-linejoin:round;stroke-miterlimit:22.9256}
    .fil2 {fill:#016AB6}
    .fil1 {fill:#E41821}
    .fil0 {fill:white}
   ]]>
  </style>
 </defs>
 <g id="Capa_x0020_1">
  <metadata id="CorelCorpID_0Corel-Layer"/>
  <rect class="fil0 str0" x="0.08" y="0.08" width="79.15" height="79.15"/>
  <g id="_2194727159168">
   <path class="fil1" d="M32.23 67.35c-0.31,0.7 -1.28,1.18 -2.1,1.24 -1,0.07 -1.66,-0.38 -1.79,-1.28 -0.31,-2.19 2.05,-2.21 3.89,-2.21l0 2.25zm-5.3 -5.86c3.35,-0.63 5.3,-1.68 5.3,2.22 -1.54,0 -3.09,0.05 -4.36,0.7 -2.41,1.24 -2.59,5.37 0.76,5.8 2.31,0.3 3.01,-0.86 3.89,-1.16l0.31 0.98 1.58 0.02c0.04,-1.84 0.35,-8.01 -0.37,-9.28 -1.43,-2.49 -5.03,-1.24 -7.39,-0.72l0.28 1.44z"/>
   <path class="fil1" d="M51.8 65.16c0.19,0.64 0.39,2.24 -0.52,2.85 -3.74,2.51 -5.34,-3.71 0.52,-2.85zm-5.22 -3.67c3.17,-0.6 5.31,-1.67 5.31,2.11 -1.46,0.4 -2.43,-0.08 -4.15,0.7 -2.76,1.25 -2.7,5.4 0.39,5.89 2.39,0.38 3.17,-0.85 4.04,-1.14l0.31 0.99 1.58 -0.08c0.12,-2.29 0.06,-4.99 0.03,-7.31 -0.07,-4.8 -6.12,-3.41 -7.79,-2.48l0.28 1.32z"/>
   <path class="fil1" d="M37.98 31.91c-0.81,-2.16 -2.84,-3.62 -3.5,-6.17 -1.02,-3.96 3.32,-6.33 5.72,-8.79 1.27,-1.31 1.02,-0.8 2.23,-2.65 1.37,-2.08 2.13,-5.76 0.14,-7.46 0.45,3.2 0.09,5.16 -2.44,7.69 -3.63,3.64 -10.69,6.45 -7.25,11.95 0.76,1.22 1.53,1.94 2.33,2.88 0.28,0.32 2.25,2.26 2.77,2.55z"/>
   <path class="fil1" d="M38.08 59.46l-2.43 0.02 3.23 10.55 2.75 0.02c1.22,-2.93 2.85,-7.05 3.21,-10.59l-2.27 0.01c-0.43,2.31 -1.07,6.25 -2.05,8.16l-2.44 -8.17z"/>
   <path class="fil2" d="M21.05 48.76c3.56,2.4 19.8,2.06 25.95,0.85 1.67,-0.32 7.55,-1.58 5.31,-3.41l-0.08 0.28c-0.21,1.03 -0.73,1.18 -1.96,1.53 -1.11,0.31 -2.33,0.5 -3.53,0.66 -5.13,0.7 -19.21,1.36 -22.8,-0.94 0.33,-1.23 3.07,-1.72 4.22,-1.75 -0.67,-0.95 -3.42,0.02 -4.29,0.32 -1.34,0.46 -2.85,0.94 -2.82,2.46z"/>
   <path class="fil1" d="M21.07 73.85c1.26,-0.66 2.34,-1.11 2.99,-2.5 0.91,-1.93 0.53,-13.05 0.53,-15.59l-2.33 -0.02c0,2.06 0.14,12.6 -0.14,14.19 -0.27,1.46 -1.11,1.83 -2.05,2.63 0.21,0.62 0.22,0.35 1,1.29z"/>
   <path class="fil1" d="M39.72 33.45c1.29,-0.51 3.31,-2.33 3.48,-4.07 0.23,-2.22 -1.78,-3.3 -2.36,-5.14 -0.87,-2.71 2.87,-5.21 4.79,-6.4 0.79,-0.49 1.74,-1 2.34,-1.57 -1.74,0.34 -4.22,1.48 -5.54,2.24 -4.02,2.33 -5.89,5.56 -2.93,9.59 1.99,2.7 1.88,2.59 0.22,5.35z"/>
   <path class="fil2" d="M45.07 44.51c-0.6,-0.43 -2.05,-1.21 -2.8,-1.16 -2.42,0.15 -7.26,1.42 -10.8,-0.18l0.32 -0.8c-1.59,0.45 -3.15,1.36 -1.2,2.53 1.16,0.69 3.09,1.04 4.58,1.17 2.56,0.21 5.42,-0.02 7.88,-0.74l1.74 -0.61c0.36,-0.21 0.17,-0.1 0.28,-0.21z"/>
   <path class="fil2" d="M33.83 36.13c4.55,0 9.92,-0.09 13.76,-2.3 -1.57,0.01 -4.09,0.57 -5.87,0.73 -3.56,0.34 -7.98,0.61 -11.6,0.24 -1.07,-0.11 -1.55,-0.11 -2.02,-0.87 0.52,-0.51 1.15,-0.77 2,-1.05l2.3 -0.82c-6.05,0.2 -14.21,4.07 1.43,4.07z"/>
   <path class="fil2" d="M45.86 39.64c-0.04,-0.05 -1.37,-0.95 -1.46,-0.99 -0.53,-0.27 -4.62,0.53 -6.54,0.6 -1.25,0.05 -9.91,0.32 -7.14,-1.87 -2.53,0.3 -4.97,3.22 3.95,3.63 2.41,0.11 9.47,-0.34 11.19,-1.37z"/>
   <path class="fil2" d="M27.28 51.52c4.76,1.82 16.95,1.51 22.5,0.2 2.16,-0.5 4.65,-1.2 5.1,-3.17 -0.89,0.56 -1.34,0.93 -2.67,1.4 -1.01,0.36 -2.1,0.66 -3.15,0.89 -2.22,0.47 -4.56,0.78 -6.92,0.96 -2.63,0.2 -5.15,0.24 -7.81,0.2 -1.17,-0.02 -6.69,-0.6 -7.05,-0.48z"/>
   <path class="fil2" d="M51.01 32.8c0.33,0.22 -0.08,0.09 0.38,0.14 0.88,0.1 1.62,-0.61 3.05,0.75 0.9,0.86 1.09,1.98 0.43,3.28 -1.13,2.24 -4.04,3.41 -4.91,4.26 5.93,-0.82 9.45,-6.19 5.69,-8.41 -1.65,-0.97 -3.12,-0.61 -4.64,-0.02z"/>
   <path class="fil0" d="M51.8 65.16c-5.86,-0.86 -4.26,5.36 -0.52,2.85 0.91,-0.61 0.71,-2.21 0.52,-2.85z"/>
   <path class="fil0" d="M32.23 67.35l0 -2.25c-1.84,0 -4.2,0.02 -3.89,2.21 0.13,0.9 0.79,1.35 1.79,1.28 0.82,-0.06 1.79,-0.54 2.1,-1.24z"/>
  </g>
 </g>
</svg>
