<?xml version="1.0" encoding="UTF-8"?>
<!DOCTYPE svg PUBLIC "-//W3C//DTD SVG 1.1//EN" "http://www.w3.org/Graphics/SVG/1.1/DTD/svg11.dtd">
<!-- Creator: CorelDRAW 2021 (64-Bit) -->
<svg xmlns="http://www.w3.org/2000/svg" xml:space="preserve" width="4756px" height="4756px" version="1.1" style="shape-rendering:geometricPrecision; text-rendering:geometricPrecision; image-rendering:optimizeQuality; fill-rule:evenodd; clip-rule:evenodd"
viewBox="0 0 1402.79 1402.79"
 xmlns:xlink="http://www.w3.org/1999/xlink"
 xmlns:xodm="http://www.corel.com/coreldraw/odm/2003">
 <defs>
  <style type="text/css">
   <![CDATA[
    .str0 {stroke:#FEFEFE;stroke-width:0.7;stroke-linecap:round;stroke-linejoin:round;stroke-miterlimit:22.9256}
    .fil2 {fill:black}
    .fil1 {fill:#2F5F91}
    .fil0 {fill:#F7F7F7}
   ]]>
  </style>
 </defs>
 <g id="Capa_x0020_1">
  <metadata id="CorelCorpID_0Corel-Layer"/>
  <rect class="fil0 str0" x="0.35" y="0.35" width="1402.09" height="1402.09"/>
  <g id="_2194504481600">
   <path class="fil1" d="M516.31 477.16c36.38,-14.78 74.87,-35.36 121.37,-22.56 41.45,11.4 51.96,46.79 59.17,95 23.21,155.16 -40.8,190.58 -45.43,250.46 22.33,-2.61 40.79,8.13 49.27,19.22 11.61,15.19 15.7,30.58 15.19,55.04 -0.98,46.71 -0.43,92.12 0.57,138.79 1.81,84.68 8.55,182.53 108.87,166.05 99.37,-16.33 101.35,-67.46 113.9,-163.32 5.44,-41.49 10.51,-82.68 14.74,-124.45 4.84,-47.9 0.29,-77.23 45.59,-92.03 -3.71,-8.4 -10.03,-14.57 -15.41,-22.26 -23.17,-33.08 -22.61,-40.06 -40.33,-71.76 -34.95,-62.52 -120.87,-223.81 -5.53,-254.88 25.46,-6.86 42.31,-3.58 67.93,-4 -15.51,-53.58 -64.63,-112.25 -94.78,-138.18 -39.93,-34.33 -93.6,-64.18 -165.47,-69.53 -82.33,-6.13 -134.61,20.65 -168.89,63.52 -29.8,37.29 -60.89,111.25 -60.76,174.89z"/>
   <path class="fil0" d="M530.46 905.25c29.82,-15.73 61.54,-7.37 88.95,-34.33 13.61,-13.38 40.98,-67.29 62.4,-25.23 9.91,19.46 -4.46,33.75 -13.18,42.17 -39.92,38.52 -111.85,37.42 -138.17,17.39zm456.5 -35.77c-2.65,-20.39 2.26,-33.64 16.81,-39.73 11.66,-4.87 12.17,-5.23 22.21,0.56 37.7,21.71 87.63,6.78 123.45,4.09 -27.98,35.33 -133.21,53.57 -162.47,35.08zm-366.05 -77.16c-34.91,4.94 -68,-23.32 -80.92,-38.45 -49.87,-58.39 -20.14,-118.28 -23.92,-202.64 -1.48,-33.07 -5.94,-34.85 10.75,-44.58 35.87,-20.92 106.33,-45.16 128.48,-1.22 9.78,19.4 16.06,76.06 16.71,100.97 1.01,39.09 -5.35,68.84 -18.67,100.92 -5.9,14.22 -11.83,27.05 -17.41,41.33 -5.58,14.26 -9.15,29.07 -15.02,43.67zm376.23 -55.2c-5.69,-1.56 -4.14,-1.59 -6.91,-7.86l-33.97 -64.74c-12.27,-22.91 -26.21,-50.66 -34.92,-77.37 -27.24,-83.51 -5.73,-122.87 88.23,-109.24 1.78,17.66 -4.89,45.58 -6.81,63.95 -8.77,83.92 20.53,127.79 -5.62,195.26zm-480.83 -259.96c-0.13,-63.64 30.96,-137.6 60.76,-174.89 34.28,-42.87 86.56,-69.65 168.89,-63.52 71.87,5.35 125.54,35.2 165.47,69.53 30.15,25.93 79.27,84.6 94.78,138.18 -25.62,0.42 -42.47,-2.86 -67.93,4 -115.34,31.07 -29.42,192.36 5.53,254.88 17.72,31.7 17.16,38.68 40.33,71.76 5.38,7.69 11.7,13.86 15.41,22.26 -45.3,14.8 -40.75,44.13 -45.59,92.03 -4.23,41.77 -9.3,82.96 -14.74,124.45 -12.55,95.86 -14.53,146.99 -113.9,163.32 -100.32,16.48 -107.06,-81.37 -108.87,-166.05 -1,-46.67 -1.55,-92.08 -0.57,-138.79 0.51,-24.46 -3.58,-39.85 -15.19,-55.04 -8.48,-11.09 -26.94,-21.83 -49.27,-19.22 4.63,-59.88 68.64,-95.3 45.43,-250.46 -7.21,-48.21 -17.72,-83.6 -59.17,-95 -46.5,-12.8 -84.99,7.78 -121.37,22.56zm16.29 313.56c-6.41,8.45 -15.03,17.26 -21.09,23.68 -23.09,24.47 -40.51,46.83 -62.1,70.85 -90.08,100.2 -175.33,-255.66 -186.34,-306.73 -22.29,-103.43 -40.16,-215.38 25.4,-289.38 26.09,-29.45 74.27,-47.76 129.08,-48.93 31.35,-0.67 131.49,11.84 150.51,26.07 -4.18,6.9 -18.21,17.29 -35.91,48.03 -10.17,17.66 -18.95,36.52 -25.85,57.9 -33.24,103.02 -17.9,135.49 -20.34,226.6 -0.71,26.68 -6.31,52.12 -5.67,77.98 1.51,60.77 25.56,81.26 52.31,113.93zm532.44 -533.4c38.09,20.9 81.66,53.05 88.4,97.07 11.46,74.92 -25.24,192.65 -50.86,256.86 -9.63,24.14 -68,154.03 -83.85,161.62 -5.1,-7.04 -1.49,-9.48 2.47,-16.88 24.8,-46.3 16.92,-95.26 11.99,-143.83 -8.05,-79.21 18.33,-127.32 2,-174.94 -16.7,-48.7 -41.32,-82.9 -71.86,-119.99 -19.71,-23.94 -50.34,-48.8 -78.64,-65.84 -10,-6.01 -26.46,-12.88 -30.35,-17.47 74.62,-12.66 149.99,-9.92 210.7,23.4zm-507.33 551.9c22.83,5.78 28.96,13.87 58.47,15.4 -3.31,9.51 -19.32,26.56 -27.14,31.1 -23.89,13.87 -68.35,12.05 -86.26,31.61 -39.48,43.11 85.26,92.82 164.9,41.41 4.35,-2.81 12.49,-9.98 17.19,-11.97 5.47,88.15 -16.04,229.42 59.25,277.12 27.07,17.15 55.28,21.05 92.17,13.94 119.7,-23.1 121.2,-96.35 134.64,-202.21 2.36,-18.62 8.13,-89.4 14.49,-99.68 5.11,-1.34 43.24,2.05 55.45,1.49 142.87,-6.57 196.14,-119.41 106.23,-103.73 -40.41,7.04 -68.31,13.36 -107.01,0.86 1.47,-7.21 28.42,-50.05 34.25,-60.17 30.22,-52.37 67.99,-141.24 84.37,-198.87 13.9,-48.91 28.65,-106.18 27.7,-161.43 -0.43,-25.23 -4.92,-60.6 -15.43,-78.83 -8.16,-14.14 -34.28,-38.63 -46.49,-48.52 -73.45,-59.48 -188.45,-76.47 -301.21,-46.29 -37.15,9.95 -34.05,0.36 -81.12,-2.12 -53.06,-2.8 -93.42,1.81 -135.42,28.62 -6.95,4.43 -7.21,6.85 -15.64,4.23 -24.96,-7.74 -46.98,-15.01 -74.32,-20.96 -118.47,-25.81 -234.98,-5.75 -276.81,81.2 -49.31,102.49 -21.99,214.75 2.41,320.71 20.19,87.7 60.26,209.58 105.93,270.16 29.8,39.54 75.29,65.69 120.49,18.05l44.68 -50.28c7.26,-8.34 14.7,-17.41 22.01,-25.58 8.41,-9.38 16.23,-15.52 22.22,-25.26z"/>
   <path class="fil1" d="M532.6 790.72c-26.75,-32.67 -50.8,-53.16 -52.31,-113.93 -0.64,-25.86 4.96,-51.3 5.67,-77.98 2.44,-91.11 -12.9,-123.58 20.34,-226.6 6.9,-21.38 15.68,-40.24 25.85,-57.9 17.7,-30.74 31.73,-41.13 35.91,-48.03 -19.02,-14.23 -119.16,-26.74 -150.51,-26.07 -54.81,1.17 -102.99,19.48 -129.08,48.93 -65.56,74 -47.69,185.95 -25.4,289.38 11.01,51.07 96.26,406.93 186.34,306.73 21.59,-24.02 39.01,-46.38 62.1,-70.85 6.06,-6.42 14.68,-15.23 21.09,-23.68z"/>
   <path class="fil2" d="M557.71 809.22c-5.99,9.74 -13.81,15.88 -22.22,25.26 -7.31,8.17 -14.75,17.24 -22.01,25.58l-44.68 50.28c-45.2,47.64 -90.69,21.49 -120.49,-18.05 -45.67,-60.58 -85.74,-182.46 -105.93,-270.16 -24.4,-105.96 -51.72,-218.22 -2.41,-320.71 41.83,-86.95 158.34,-107.01 276.81,-81.2 27.34,5.95 49.36,13.22 74.32,20.96 8.43,2.62 8.69,0.2 15.64,-4.23 42,-26.81 82.36,-31.42 135.42,-28.62 47.07,2.48 43.97,12.07 81.12,2.12 112.76,-30.18 227.76,-13.19 301.21,46.29 12.21,9.89 38.33,34.38 46.49,48.52 10.51,18.23 15,53.6 15.43,78.83 0.95,55.25 -13.8,112.52 -27.7,161.43 -16.38,57.63 -54.15,146.5 -84.37,198.87 -5.83,10.12 -32.78,52.96 -34.25,60.17 38.7,12.5 66.6,6.18 107.01,-0.86 89.91,-15.68 36.64,97.16 -106.23,103.73 -12.21,0.56 -50.34,-2.83 -55.45,-1.49 -6.36,10.28 -12.13,81.06 -14.49,99.68 -13.44,105.86 -14.94,179.11 -134.64,202.21 -36.89,7.11 -65.1,3.21 -92.17,-13.94 -75.29,-47.7 -53.78,-188.97 -59.25,-277.12 -4.7,1.99 -12.84,9.16 -17.19,11.97 -79.64,51.41 -204.38,1.7 -164.9,-41.41 17.91,-19.56 62.37,-17.74 86.26,-31.61 7.82,-4.54 23.83,-21.59 27.14,-31.1 -29.51,-1.53 -35.64,-9.62 -58.47,-15.4zm-91.3 127.44l3.45 3.02c0.28,0.28 0.73,0.73 1.03,1.03 11.87,12.03 14.58,12.52 34.35,19.2 14.76,4.98 32.66,8.04 49.66,11.02 69,12.11 77.47,-6.32 102.78,-12.25 0.34,51.61 2.57,168.95 22.21,210.23 25.23,53.02 80.99,80.66 159.94,65.28 68.16,-13.28 112.92,-40.55 133.26,-98.71 17.25,-49.34 24.29,-146.95 30.52,-203.63 49.36,0.83 57.74,7.07 115.6,-7.72 37.1,-9.48 61.63,-29.69 78.72,-52.35 17.01,-22.55 39.86,-75.34 1.36,-89.26 -16.47,-5.96 -41.49,1.72 -58.22,4 -22.14,3.03 -41.02,4.11 -63.57,1.37l61.7 -123.05c35.61,-84.23 76.43,-201.96 75.86,-295.95 -0.47,-76.44 -22.2,-91.42 -58.35,-127.29 -78.5,-77.92 -220.63,-92.25 -329.59,-63.58 -12.27,3.23 -25.07,9.67 -37.54,7.06 -52.57,-11.04 -114.01,-13.52 -164.77,5.34 -46.89,17.43 -23.28,21.68 -68.22,8.99 -105.36,-29.75 -227.57,-32.33 -301.25,30.04 -68.79,58.23 -86.21,175.32 -63.49,288.9 17.7,88.44 93.21,427.02 206.89,445.51 30.35,4.93 56.22,-12.05 67.67,-27.2z"/>
   <path class="fil1" d="M854.34 233.92c3.89,4.59 20.35,11.46 30.35,17.47 28.3,17.04 58.93,41.9 78.64,65.84 30.54,37.09 55.16,71.29 71.86,119.99 16.33,47.62 -10.05,95.73 -2,174.94 4.93,48.57 12.81,97.53 -11.99,143.83 -3.96,7.4 -7.57,9.84 -2.47,16.88 15.85,-7.59 74.22,-137.48 83.85,-161.62 25.62,-64.21 62.32,-181.94 50.86,-256.86 -6.74,-44.02 -50.31,-76.17 -88.4,-97.07 -60.71,-33.32 -136.08,-36.06 -210.7,-23.4z"/>
   <path class="fil1" d="M601.59 499.14c24.8,-8.69 65.76,12.3 35.02,29.83 -27.56,15.7 -60.59,-20.88 -35.02,-29.83zm19.32 293.18c5.87,-14.6 9.44,-29.41 15.02,-43.67 5.58,-14.28 11.51,-27.11 17.41,-41.33 13.32,-32.08 19.68,-61.83 18.67,-100.92 -0.65,-24.91 -6.93,-81.57 -16.71,-100.97 -22.15,-43.94 -92.61,-19.7 -128.48,1.22 -16.69,9.73 -12.23,11.51 -10.75,44.58 3.78,84.36 -25.95,144.25 23.92,202.64 12.92,15.13 46.01,43.39 80.92,38.45z"/>
   <path class="fil1" d="M948.71 492.27c38.67,-11.52 42.63,14.66 17.57,26.28 -19.34,8.97 -54.94,-15.14 -17.57,-26.28zm48.43 244.85c26.15,-67.47 -3.15,-111.34 5.62,-195.26 1.92,-18.37 8.59,-46.29 6.81,-63.95 -93.96,-13.63 -115.47,25.73 -88.23,109.24 8.71,26.71 22.65,54.46 34.92,77.37l33.97 64.74c2.77,6.27 1.22,6.3 6.91,7.86z"/>
   <path class="fil1" d="M530.46 905.25c26.32,20.03 98.25,21.13 138.17,-17.39 8.72,-8.42 23.09,-22.71 13.18,-42.17 -21.42,-42.06 -48.79,11.85 -62.4,25.23 -27.41,26.96 -59.13,18.6 -88.95,34.33z"/>
   <path class="fil1" d="M986.96 869.48c29.26,18.49 134.49,0.25 162.47,-35.08 -35.82,2.69 -85.75,17.62 -123.45,-4.09 -10.04,-5.79 -10.55,-5.43 -22.21,-0.56 -14.55,6.09 -19.46,19.34 -16.81,39.73z"/>
   <path class="fil0" d="M601.59 499.14c-25.57,8.95 7.46,45.53 35.02,29.83 30.74,-17.53 -10.22,-38.52 -35.02,-29.83z"/>
   <path class="fil0" d="M948.71 492.27c-37.37,11.14 -1.77,35.25 17.57,26.28 25.06,-11.62 21.1,-37.8 -17.57,-26.28z"/>
  </g>
 </g>
</svg>
